<?xml version="1.0" standalone="no"?>
<!DOCTYPE svg PUBLIC "-//W3C//DTD SVG 1.1//EN" "http://www.w3.org/Graphics/SVG/1.1/DTD/svg11.dtd" >
<svg xmlns="http://www.w3.org/2000/svg">
<metadata></metadata>
<defs>
<font id="titillium_webblack" horiz-adv-x="1126" >
<font-face units-per-em="2048" ascent="1638" descent="-410" />
<missing-glyph horiz-adv-x="440" />
<glyph horiz-adv-x="0" />
<glyph unicode="&#xd;" horiz-adv-x="681" />
<glyph unicode=" "  horiz-adv-x="440" />
<glyph unicode="&#x09;" horiz-adv-x="440" />
<glyph unicode="&#xa0;" horiz-adv-x="440" />
<glyph unicode="!" horiz-adv-x="593" d="M49 1372h496l-29 -872h-438zM63 0v406h467v-406h-467z" />
<glyph unicode="&#x22;" horiz-adv-x="1114" d="M27 1372h489l-63 -512h-361zM596 1372h489l-63 -512h-360z" />
<glyph unicode="#" d="M10 231l15 363h108l4 164h-112l14 362h106l9 252h360l-8 -252h127l8 252h363l-9 -252h119l-14 -362h-113l-4 -164h115l-8 -363h-117l-6 -231h-363l6 231h-127l-6 -231h-360l6 231h-113zM494 594h127l4 164h-127z" />
<glyph unicode="$" d="M14 901q0 260 121 362.5t371 106.5v168h127v-168q182 -8 379 -39l65 -10l-12 -363q-283 31 -412 31t-149.5 -7t-20.5 -28.5t24.5 -34t136.5 -37t183.5 -46t137 -54t96.5 -77.5q61 -92 61 -269q0 -240 -121.5 -346t-367.5 -115v-149h-127v149q-238 12 -418 58l-63 14 l18 354q307 -45 504 -45q59 0 81.5 11.5t22.5 34t-23.5 30.5t-129.5 25q-281 45 -382.5 139t-101.5 305z" />
<glyph unicode="%" horiz-adv-x="1363" d="M35 1002.5q0 199.5 65.5 282.5t232.5 83t229.5 -82t62.5 -282.5t-63.5 -283.5t-231.5 -83t-231.5 83t-63.5 282.5zM293 1019q0 -87 4 -118t10 -38t26.5 -7t27 22.5t6.5 126t-6.5 125t-31 21.5t-30.5 -22.5t-6 -109.5zM467 -121l324 1557l90 -19l-326 -1554zM739 341 q0 200 65.5 283t232.5 83t229.5 -82t62.5 -283t-63.5 -284t-231.5 -83t-231.5 83t-63.5 283zM997 357q0 -87 4.5 -117.5t10.5 -37.5t26.5 -7t26.5 22.5t6 125.5t-6 124.5t-30.5 21.5t-31 -22.5t-6.5 -109.5z" />
<glyph unicode="&#x26;" horiz-adv-x="1437" d="M12 389q0 160 55.5 248t165.5 135q-55 84 -55 252q0 375 512 375q375 0 469 -191q39 -74 39 -200.5t-53 -192t-244 -115.5l121 -104q23 43 33 82l372 -14q-51 -199 -118 -320l133 -115l-94 -256l-277 113q-182 -113 -487 -113t-438.5 91.5t-133.5 324.5zM475 469 q0 -125 156 -125q39 0 71 8l-219 185q-8 -27 -8 -68zM623 1020q0 -68 51 -119q74 51 74 119q0 92 -62.5 92t-62.5 -92z" />
<glyph unicode="'" horiz-adv-x="544" d="M27 1372h489l-63 -512h-361z" />
<glyph unicode="(" horiz-adv-x="667" d="M33 660q0 194 51 423.5t100 341.5l52 111h415q-16 -53 -41.5 -143t-68.5 -334t-43 -441.5t37.5 -415.5t76.5 -337l39 -121h-415q-129 227 -183 575q-20 147 -20 341z" />
<glyph unicode=")" horiz-adv-x="667" d="M16 -246q16 53 42 143.5t69 334t43 441t-38 416t-77 336.5l-39 121h416q129 -227 182 -575q20 -147 20.5 -341t-51 -423.5t-100.5 -341.5l-51 -111h-416z" />
<glyph unicode="*" horiz-adv-x="849" d="M39 1204l160 221l157 -133l52 203l260 -84l-78 -192l209 16v-274l-207 14l78 -195l-256 -84l-54 201l-159 -133l-160 219l174 111z" />
<glyph unicode="+" d="M90 336v369h289v284h369v-284h288v-369h-288v-289h-369v289h-289z" />
<glyph unicode="," horiz-adv-x="591" d="M27 -211l45 606h495l-161 -606h-379z" />
<glyph unicode="-" horiz-adv-x="729" d="M59 330v370h611v-370h-611z" />
<glyph unicode="." horiz-adv-x="577" d="M55 0v408h467v-408h-467z" />
<glyph unicode="/" d="M31 -61l620 1536l445 -91l-621 -1536z" />
<glyph unicode="0" d="M27 675q0 372 120.5 536.5t417.5 164.5t414 -162.5t117 -536.5t-118 -539t-417 -165t-416.5 165t-117.5 537zM492 675q0 -200 13 -258.5t56 -58.5t56.5 58.5t13.5 212t-3 213t-11.5 94.5t-20.5 45t-34.5 10t-35 -10t-20.5 -45q-14 -61 -14 -261z" />
<glyph unicode="1" d="M86 1071l479 279h391v-1350h-464v852l-283 -113z" />
<glyph unicode="2" d="M88 0v352l178 172q57 53 111 107l86 86q35 35 63.5 78t33.5 64.5t5 43.5q0 53 -30.5 67.5t-108.5 14.5q-147 0 -270 -22l-43 -9l-21 351q213 76 445.5 75.5t364.5 -106t132 -292.5t-61.5 -293.5t-229.5 -223.5l-137 -96h420v-369h-938z" />
<glyph unicode="3" d="M72 27l12 358q236 -20 336 -20t133 11t33 49t-22.5 52.5t-86.5 20.5h-289v362h271q111 0 110.5 62.5t-141.5 62.5q-96 0 -283 -14l-53 -4l-10 350q236 59 379 59q301 0 437 -86t136 -303q0 -113 -27.5 -172t-97.5 -108q78 -59 111 -118t33 -165q0 -256 -133.5 -353.5 t-411.5 -97.5q-170 0 -369 39z" />
<glyph unicode="4" d="M37 164v332l184 854h537l-264 -801h100l41 231l422 15v-246h51v-385h-51v-164h-465v164h-555z" />
<glyph unicode="5" d="M35 53l35 334q276 -41 460 -41q104 0 104.5 56.5t-97.5 56.5q-66 0 -140 -19l-24 -6l-303 37l28 879h938v-410h-579l-11 -90q88 31 183 31q238 0 348 -96.5t110 -340.5q0 -471 -512 -471q-96 0 -231 19.5t-221 40.5z" />
<glyph unicode="6" d="M33 662q0 412 168 571q80 78 178 110.5t201 32.5q178 0 405 -53l76 -16l-33 -340q-229 34 -401 34q-80 0 -115 -34.5t-41 -104.5l21 8q72 29 149 29q233 0 344 -111.5t111 -348t-137.5 -351.5t-376.5 -115q-283 0 -416 172t-133 517zM469 512q0 -94 22.5 -134t90.5 -40 q96 0 96 99.5t-92 99.5q-63 0 -117 -25z" />
<glyph unicode="7" d="M100 920v430h926v-453l-360 -924l-459 95l340 800v52h-447z" />
<glyph unicode="8" d="M25 362q0 133 38.5 200t139.5 126q-88 53 -121 122t-33 202q0 364 512 364q383 0 479 -184q37 -74 37 -193.5t-31.5 -189.5t-123.5 -123q106 -51 141 -117.5t35 -210.5q0 -385 -536.5 -385t-536.5 389zM479.5 402q-0.5 -83 81.5 -83q43 0 62.5 19.5t19.5 79t-53 112.5 h-55q-55 -45 -55.5 -128zM496 938q0 -51 39 -98h55q39 41 39 102q0 92 -70 92q-37 0 -50 -22.5t-13 -73.5z" />
<glyph unicode="9" d="M29 910.5q0 236.5 137 351t377 114.5q283 0 416 -172t133 -516q0 -412 -166 -571q-82 -78 -180.5 -111t-200.5 -33q-178 0 -406 52l-76 18l33 340q230 -35 402 -35q80 0 114.5 35t40.5 104l-20 -8q-72 -29 -150 -28q-233 0 -343.5 111.5t-110.5 348zM447 912.5 q0 -99.5 92 -99.5q63 0 116 25q0 94 -22.5 134t-89.5 40q-96 0 -96 -99.5z" />
<glyph unicode=":" horiz-adv-x="589" d="M61 0v408h467v-408h-467zM61 543v407h467v-407h-467z" />
<glyph unicode=";" horiz-adv-x="602" d="M27 -211l45 606h495l-161 -606h-379zM78 543v407h467v-407h-467z" />
<glyph unicode="&#x3c;" d="M156 297v453l790 309v-459l-489 -65l489 -89v-473z" />
<glyph unicode="=" d="M121 117v348h885v-348h-885zM121 578v348h885v-348h-885z" />
<glyph unicode="&#x3e;" d="M178 -27v473l490 89l-490 65v459l791 -309v-453z" />
<glyph unicode="?" horiz-adv-x="968" d="M35 1364q231 76 457.5 76t334 -96.5t107.5 -327.5q0 -152 -38 -222.5t-142 -144.5q-158 -113 -162 -166l-2 -39h-359q-47 63 -47 149.5t34 134.5t125 115.5t109.5 90t18.5 62.5t-28.5 57.5t-94.5 17.5q-127 0 -256 -22l-43 -7zM180 0v369h467v-369h-467z" />
<glyph unicode="@" horiz-adv-x="2103" d="M47 533.5q0 271.5 68.5 460t206 297t321.5 155.5t436 47q510 0 747.5 -195.5t237.5 -652.5v-35q0 -352 -100 -481t-361.5 -129t-371.5 109q-143 -109 -313 -109q-227 0 -328 120t-101 382q0 532 377 532q63 0 124 -19.5t89 -39.5l29 -19v52h459v-394q0 -162 18.5 -216 t64.5 -54t59 49t13 217v37q0 166 -31.5 268.5t-112.5 163t-196.5 82t-283.5 21.5t-272.5 -14.5t-196.5 -55.5t-146 -113q-115 -154 -114 -464q0 -297 61 -433q37 -76 86 -120.5t131 -71.5q137 -47 412 -47l293 20l6 -313q-201 -18 -299 -19q-301 0 -495.5 53.5t-309.5 177.5 t-161 302t-46 449.5zM952 516q0 -88 15.5 -119.5t54.5 -31.5t96 22q-10 70 -10 184v84q-31 8 -73 8.5t-62.5 -29.5t-20.5 -118z" />
<glyph unicode="A" horiz-adv-x="1308" d="M-10 0l303 1372h719l309 -1372h-479l-39 158h-314l-32 -158h-467zM551 520h203l-74 479h-51z" />
<glyph unicode="B" horiz-adv-x="1243" d="M61 0v1372h621q502 0 502 -340q0 -129 -28 -198.5t-114 -131.5q100 -43 138.5 -105t38.5 -208q0 -389 -529 -389h-629zM537 317h110q72 0 96.5 24t24.5 88.5t-26.5 89t-94.5 24.5h-110v-226zM537 840h106q61 0 86 26.5t25 85t-27 83t-86 24.5h-104v-219z" />
<glyph unicode="C" horiz-adv-x="1091" d="M37 690q0 408 126 558.5t480 150.5q147 0 348 -41l72 -15l-12 -366q-168 20 -310.5 20t-183.5 -54t-41 -224t19.5 -235.5t62.5 -87t139 -21.5l320 12l6 -360q-217 -53 -445 -53q-2 0 -3 -1q-225 1 -347 65q-123 64 -177 216t-54 436z" />
<glyph unicode="D" horiz-adv-x="1339" d="M61 0v1372h580q354 0 510 -159.5t156 -511t-149.5 -526.5t-495.5 -175h-601zM537 387h84q106 0 157 53q49 53 49 237.5t-37.5 246t-168.5 61.5h-84v-598z" />
<glyph unicode="E" horiz-adv-x="1124" d="M61 0v1372h1029v-379h-553v-116h430v-375h-430v-123h553v-379h-1029z" />
<glyph unicode="F" horiz-adv-x="1067" d="M61 0v1372h990v-387h-514v-221h391v-387h-391v-377h-476z" />
<glyph unicode="G" horiz-adv-x="1267" d="M35 688q0 395 147.5 553t497.5 158q104 0 235.5 -17.5t208.5 -33.5l78 -19v-358q-290 27 -414 27h-5q-124 -1 -161.5 -12t-60 -26.5t-33.5 -60.5q-14 -63 -14 -223t37 -232.5t149 -72.5l70 2v102h-61l-2 332h505v-766q-371 -59 -549 -59t-304 39.5t-197.5 132t-99 217.5 t-27.5 317z" />
<glyph unicode="H" horiz-adv-x="1341" d="M61 0v1372h476v-506h268v506h475v-1372h-475v479h-268v-479h-476z" />
<glyph unicode="I" horiz-adv-x="598" d="M61 0v1372h476v-1372h-476z" />
<glyph unicode="J" horiz-adv-x="657" d="M31 -27v392q27 0 39 1t25.5 12t17.5 25.5t8 51.5q6 57 6 204v713h475v-1010q0 -201 -98 -294q-76 -76 -275 -88q-76 -6 -198 -7z" />
<glyph unicode="K" horiz-adv-x="1247" d="M61 0v1372h476v-485h81l154 485h471l-219 -663l240 -709h-478l-165 457h-84v-457h-476z" />
<glyph unicode="L" horiz-adv-x="1001" d="M61 0v1372h476v-985h446v-387h-922z" />
<glyph unicode="M" horiz-adv-x="1751" d="M61 0v1372h707l106 -524l89 524h727v-1372h-476v707h-22l-119 -693h-397l-117 693h-22v-707h-476z" />
<glyph unicode="N" horiz-adv-x="1409" d="M61 0v1372h467l316 -520h28v520h476v-1372h-469l-312 559h-30v-559h-476z" />
<glyph unicode="O" horiz-adv-x="1372" d="M33 687q0 374 155.5 543t497.5 169t497.5 -169t155.5 -544t-155.5 -544t-496.5 -169t-497.5 170t-156.5 544zM512 686q0 -174 34 -251t141.5 -77t140 76t32.5 253t-31.5 252t-140 75t-142.5 -77t-34 -251z" />
<glyph unicode="P" horiz-adv-x="1253" d="M61 0v1372h539q326 0 474.5 -112.5t148.5 -423t-149.5 -428t-473.5 -117.5h-63v-291h-476zM537 666h43q88 0 125.5 38.5t37.5 133t-35.5 127t-127.5 32.5h-43v-331z" />
<glyph unicode="Q" horiz-adv-x="1366" d="M33 686q0 379 150.5 546t496.5 167t499.5 -167t153.5 -568.5t-196 -565.5l163 -243l-360 -179l-201 299q-18 -2 -59 -2q-342 0 -494.5 167t-152.5 546zM500 686q0 -170 37.5 -249t143 -79t139.5 78t34 251t-34 250t-139.5 77t-143 -79t-37.5 -249z" />
<glyph unicode="R" horiz-adv-x="1263" d="M61 0v1372h578q317 0 454.5 -105.5t137.5 -391t-152 -408.5l135 -467h-483l-78 354h-116v-354h-476zM535 729h116q100 0 101 135q0 133 -113 133h-104v-268z" />
<glyph unicode="S" horiz-adv-x="1183" d="M33 918q0 276 133 378.5t409 102.5q195 0 457 -39l86 -14l-12 -369q-289 31 -420 31t-152.5 -7.5t-21.5 -30t24.5 -34.5t154.5 -41t213 -56.5t149.5 -77.5t88 -123t21.5 -196q0 -254 -135 -362.5t-407 -108.5q-131 0 -275.5 18.5t-222.5 37.5l-80 18l20 363 q313 -45 515 -46q106 0 106 48q0 20 -24.5 29.5t-133.5 25.5q-287 45 -390 140t-103 313z" />
<glyph unicode="T" horiz-adv-x="1062" d="M18 985v387h1024v-387h-266v-985h-475v985h-283z" />
<glyph unicode="U" horiz-adv-x="1312" d="M53 492v880h475v-899q0 -59 30 -83.5t99.5 -24.5t98 24.5t28.5 83.5v899h476v-872q0 -291 -145.5 -409t-458 -118t-458 115t-145.5 404z" />
<glyph unicode="V" horiz-adv-x="1224" d="M-14 1372h503l107 -893h37l96 893h504l-268 -1372h-701z" />
<glyph unicode="W" horiz-adv-x="1873" d="M12 1372h473l66 -893h37l92 873h518l102 -873h37l41 893h477l-151 -1372h-694l-68 844l-20 2l-70 -846h-678z" />
<glyph unicode="X" horiz-adv-x="1193" d="M-16 0l292 657l-292 715h483l125 -377l160 377h467l-297 -653l278 -719h-487l-121 365l-125 -365h-483z" />
<glyph unicode="Y" horiz-adv-x="1208" d="M-27 1372h504l129 -403l133 403h502l-401 -942v-430h-475v430z" />
<glyph unicode="Z" horiz-adv-x="1165" d="M39 0v369l455 581v35h-455v387h1085v-387l-444 -563v-35h444v-387h-1085z" />
<glyph unicode="[" horiz-adv-x="698" d="M68 -252v1786h591v-371h-131v-1044h131v-371h-591z" />
<glyph unicode="\" d="M31 1384l444 91l621 -1536l-445 -91z" />
<glyph unicode="]" horiz-adv-x="694" d="M35 119h131v1044h-131v371h592v-1786h-592v371z" />
<glyph unicode="^" horiz-adv-x="1296" d="M94 641l295 731h520l295 -731h-430l-121 444l-129 -444h-430z" />
<glyph unicode="_" horiz-adv-x="1228" d="M82 -119h1065v-260h-1065v260z" />
<glyph unicode="`" horiz-adv-x="866" d="M160 1481h485l88 -340h-350z" />
<glyph unicode="a" horiz-adv-x="1140" d="M20 323.5q0 184.5 104.5 247t330.5 70.5l147 6v19q0 39 -86 39q-186 0 -373 -21l-67 -6l-10 311q270 72 493 72q233 0 363 -70q139 -74 139 -291v-389q18 -14 49 -22l-6 -291q-160 -25 -219.5 -25t-108.5 17.5t-65 36.5l-17 18q-127 -72 -308 -72t-273.5 83t-92.5 267.5z M479 338q0 -49 45 -49q39 0 78 30v76l-70 -4q-53 -4 -53 -53z" />
<glyph unicode="b" horiz-adv-x="1165" d="M55 20v1393h459v-385q135 33 213 33q406 0 406 -526q0 -315 -121 -438.5t-441 -123.5q-131 0 -424 35zM514 350q27 -6 66 -6q90 0 90 180q0 96 -20.5 131t-69.5 35l-66 -14v-326z" />
<glyph unicode="c" horiz-adv-x="952" d="M33 521q0 304 116.5 422t395.5 118q141 0 313 -41l57 -12l-14 -363q-211 17 -283 17h-2q-70 0 -94 -32q-26 -32 -26 -113t25.5 -111.5t90.5 -30.5l293 14l15 -358q-197 -57 -375 -58q-295 0 -403.5 122t-108.5 426z" />
<glyph unicode="d" horiz-adv-x="1167" d="M33 516q0 545 452 545l166 -12v364h459v-1413h-453l-4 45q-113 -72 -215 -72q-225 0 -315 138.5t-90 404.5zM496 517q0 -83 18 -128t74 -45l63 6v334q-45 6 -65 6q-55 0 -72.5 -45t-17.5 -128z" />
<glyph unicode="e" horiz-adv-x="1130" d="M31 498q0 278 129 420.5t402.5 142.5t406.5 -117t133 -358l-21 -203h-592q2 -72 93 -72q205 0 409 13l80 6l10 -297q-271 -59 -541 -59q-1 0 -3 -1q-269 0 -387 124q-120 124 -119 401zM487 633h156q0 59 -17.5 83.5t-60.5 24.5t-59.5 -24.5t-18.5 -83.5z" />
<glyph unicode="f" horiz-adv-x="733" d="M37 664v370h55v8q0 221 74 309.5t278 88.5q100 0 236 -21l39 -6v-332q-168 0 -168 -26v-21h164v-370h-164v-664h-459v664h-55z" />
<glyph unicode="g" horiz-adv-x="1150" d="M53.5 -34.5q28.5 57.5 102.5 114.5q-74 51 -74 153q0 23 29.5 61t60.5 62l29 27q-166 78 -166 295t117.5 300t390.5 83q68 0 178 -17l33 -6l379 6v-268h-97q18 -51 19 -84q0 -221 -113 -295.5t-383 -74.5q-41 0 -78 6q-8 -12 -8 -25q0 -20 241.5 -20t326.5 -72t85 -261.5 t-139 -295.5q-138 -105 -395 -105l-2 1q-259 0 -402 49q-163 53 -163 233q0 76 28.5 133.5zM399 -109q0 -27 150 -27h6q156 1 156 34q0 20 -27 25t-109 5l-157 9q-19 -11 -19 -46zM465 694q0 -41 18.5 -57t61.5 -16t61.5 16t18.5 57t-18.5 57.5t-61.5 16.5t-61.5 -16.5 t-18.5 -57.5z" />
<glyph unicode="h" horiz-adv-x="1183" d="M57 0v1413h459v-387q143 35 219 35q223 0 312.5 -117t89.5 -409v-535h-459v487q0 178 -78 179l-84 -13v-653h-459z" />
<glyph unicode="i" horiz-adv-x="573" d="M55 1100v313h463v-313h-463zM57 0v1034h459v-1034h-459z" />
<glyph unicode="j" horiz-adv-x="573" d="M-125 -102q127 59 154.5 93.5t27.5 143.5v899h459v-884q0 -215 -31.5 -293t-61.5 -115t-93 -74q-98 -53 -307 -119zM55 1102v311h463v-311h-463z" />
<glyph unicode="k" horiz-adv-x="1132" d="M57 0v1413h459v-711h59l93 332h452l-147 -499l160 -535h-459l-96 303h-62v-303h-459z" />
<glyph unicode="l" horiz-adv-x="573" d="M57 0v1413h459v-1413h-459z" />
<glyph unicode="m" horiz-adv-x="1763" d="M57 0v1034h457v-53q135 80 265 80t214 -92q145 92 307 92q240 0 328 -128t88 -411v-522h-459v467q0 199 -67 199l-88 -13q14 -43 14 -178v-475h-459v467q0 199 -65 199l-76 -11v-655h-459z" />
<glyph unicode="n" horiz-adv-x="1183" d="M57 0v1034h457v-53q129 80 225 80q221 0 309.5 -120t88.5 -423v-518h-459v487q0 178 -74 179l-88 -15v-651h-459z" />
<glyph unicode="o" horiz-adv-x="1155" d="M31 516q0 289 136 417t410.5 128t410.5 -128t136 -417t-136 -416t-410.5 -127t-410.5 127t-136 416zM494 517q0 -99 18 -136t65.5 -37t66 37t18.5 136t-18.5 136t-66 37t-65.5 -37t-18 -136z" />
<glyph unicode="p" horiz-adv-x="1167" d="M57 -399v1433h453l4 -53q100 80 215 80q217 0 311.5 -139.5t94.5 -415t-103.5 -404.5t-347.5 -129q-49 0 -139 21l-29 6v-399h-459zM516 350q27 -6 66 -6q90 0 90 180q0 96 -20.5 131t-69.5 35l-66 -14v-326z" />
<glyph unicode="q" horiz-adv-x="1167" d="M165 936q132 127 429 127q125 0 424 -27l92 -8v-1425h-459v405q-135 -35 -213 -35q-405 0 -405 526q0 310 132 437zM496 512q0 -96 20.5 -131t69.5 -35l65 12v328q-26 6 -65 6q-90 0 -90 -180z" />
<glyph unicode="r" horiz-adv-x="753" d="M57 0v1034h459v-96q129 123 217 123v-426q-70 0 -180 -55l-37 -19v-561h-459z" />
<glyph unicode="s" horiz-adv-x="1001" d="M39 684q0 209 120 293t339 84q233 0 399 -41l55 -12l-16 -322q-254 29 -346 29t-92 -17q0 -12 160.5 -29.5t234.5 -92t74 -255t-112 -264.5t-343 -84q-129 0 -245.5 13.5t-168.5 27.5l-53 15l10 309q254 -35 353.5 -35t99.5 19q0 10 -162 31.5t-234.5 96t-72.5 234.5z " />
<glyph unicode="t" horiz-adv-x="759" d="M20 664v370h80v205h459v-205h166v-370h-166v-213q0 -51 13.5 -68.5t54.5 -17.5l92 2l6 -357q-176 -37 -270 -37q-190 0 -272.5 79t-82.5 292v320h-80z" />
<glyph unicode="u" horiz-adv-x="1181" d="M47 500v534h459v-504q0 -92 16.5 -126.5t52.5 -34.5l91 12v653h458v-1034h-454v49q-131 -76 -234 -76q-217 0 -303 126t-86 401z" />
<glyph unicode="v" horiz-adv-x="1120" d="M2 1034h487l74 -651h27l69 651h459l-174 -1034h-768z" />
<glyph unicode="w" horiz-adv-x="1622" d="M20 1034h506l21 -651h24l47 625h416l66 -625h24l23 651h452l-104 -1034h-653l-35 446l-39 -446h-625z" />
<glyph unicode="x" horiz-adv-x="1101" d="M-2 0l203 512l-203 522h491l82 -291l82 291h451l-182 -514l176 -520h-496l-82 260l-67 -260h-455z" />
<glyph unicode="y" horiz-adv-x="1118" d="M2 1034h487l74 -651h29l65 651h461l-244 -1433h-503l129 399h-324z" />
<glyph unicode="z" horiz-adv-x="1024" d="M49 0v375l303 260h-303v399h924v-354l-314 -281h320v-399h-930z" />
<glyph unicode="{" horiz-adv-x="739" d="M31 471v346q90 16 90 70l-27 313q0 168 78 242q86 78 213 98q133 18 320 19v-369q-94 -8 -120 -30.5t-26 -98.5l6 -166q0 -104 -23.5 -152.5t-90.5 -85.5q66 -37 90 -85t24 -140l-6 -201q0 -78 26.5 -103.5t119.5 -33.5v-368q-240 0 -347.5 26.5t-156.5 63.5 q-106 86 -107 262q0 43 13.5 166t13.5 145q0 63 -90 82z" />
<glyph unicode="|" horiz-adv-x="585" d="M70 -451v1891h446v-1891h-446z" />
<glyph unicode="}" horiz-adv-x="735" d="M31 86q94 8 119.5 30.5t25.5 98.5l-6 166q0 106 23.5 153.5t91.5 83.5q-66 37 -90.5 85.5t-24.5 140.5l6 200q0 78 -26.5 104t-118.5 34v368q240 0 347 -26.5t154 -65.5q109 -84 109 -260q0 -43 -13.5 -166t-13.5 -145q0 -63 91 -82v-346q-90 -16 -91 -70l27 -313 q0 -168 -78 -240q-86 -80 -215 -98q-131 -20 -317 -21v369z" />
<glyph unicode="~" d="M125 639q43 43 118.5 76t135 33t202 -45.5t185.5 -45.5q80 0 180 60l35 20l16 -350q-35 -41 -105.5 -74.5t-130 -33.5t-209 45t-188 45t-95 -20.5t-89.5 -41.5l-35 -20z" />
<glyph unicode="&#xa1;" horiz-adv-x="593" d="M49 -338l29 873h438l29 -873h-496zM63 629v405h467v-405h-467z" />
<glyph unicode="&#xa2;" d="M84 523.5q0 232.5 100.5 328.5t323.5 102v256h123v-258q178 -4 344 -30l49 -9l-12 -307q-209 8 -375 8q-55 0 -76.5 -22.5t-21.5 -72.5t21.5 -71.5t76.5 -21.5l379 8l12 -303q-170 -35 -397 -43v-264h-123v262q-236 6 -330 105.5t-94 332z" />
<glyph unicode="&#xa3;" d="M68 0v375h127v293h-127v123h127v83q0 154 24.5 251.5t82.5 151.5t141 74.5t184 20.5q184 0 336 -33l55 -10l-12 -340q-145 8 -234.5 8t-127.5 -31.5t-38 -117.5v-57h281v-123h-281v-293h191l241 31l37 -373l-248 -33h-759z" />
<glyph unicode="&#xa4;" d="M80 135l115 113q-96 123 -96.5 281.5t96.5 281.5l-115 115l88 88l115 -117q119 92 275.5 92t279.5 -98l120 123l89 -88l-123 -121q92 -121 92 -274.5t-92 -274.5l123 -121l-89 -88l-120 121q-123 -96 -280 -96t-275 90l-115 -115zM371 531q0 -80 52 -133.5t132 -53.5 t134 53.5t54 133t-55 131.5q-53 55 -133 55t-131 -55q-53 -51 -53 -131z" />
<glyph unicode="&#xa5;" horiz-adv-x="1189" d="M33 1346h483l76 -424l84 424h483l-241 -611h163v-123h-213l-49 -127v-61h262v-123h-262v-301h-463v301h-258v123h258v61l-49 127h-209v123h164z" />
<glyph unicode="&#xa6;" horiz-adv-x="581" d="M68 348h446v-799h-446v799zM68 631v809h446v-809h-446z" />
<glyph unicode="&#xa7;" horiz-adv-x="1218" d="M45 445.5q0 144.5 88 250.5q-59 68 -65 144q-2 27 -2 80q0 254 134 353t375 99q98 0 237.5 -20.5t227.5 -40.5l90 -23l-12 -327q-348 41 -441 40.5t-123 -11.5t-30 -40.5t37 -46t172 -43.5q256 -51 348.5 -116.5t92.5 -236.5t-93 -259q41 -47 56.5 -90t15.5 -135 q0 -422 -506 -422q-123 0 -266 25.5t-225 51.5l-80 27l35 328q16 -6 209.5 -35t265.5 -29q111 0 110 58q0 27 -45 42t-242.5 54t-280.5 108.5t-83 214zM495.5 505.5q0.5 -30.5 15.5 -40.5t109.5 -39t102.5 -33q18 39 18 84t-125 70q-73 16 -98 26q-23 -37 -22.5 -67.5z" />
<glyph unicode="&#xa8;" horiz-adv-x="856" d="M49 1145v315h336v-315h-336zM479 1145v315h336v-315h-336z" />
<glyph unicode="&#xa9;" horiz-adv-x="1222" d="M47 892q0 249 160 413.5t408.5 164.5t404.5 -167.5t156 -416.5t-156 -414t-403.5 -165t-408.5 168t-161 417zM174 888.5q0 -190.5 125 -324.5t312.5 -134t312.5 133t125 323.5t-126 326t-312.5 135.5t-311.5 -134.5t-125 -325zM367 890.5q0 192.5 62.5 263.5t207.5 71 q57 0 119 -17l45 -14l-15 -176l-45 6q-80 6 -92 6q-41 0 -56 -27.5t-15 -103.5q0 -154 71 -154q39 0 92 5l45 6l15 -168l-43 -19q-55 -18 -129 -18q-142 0 -202 73.5t-60 266z" />
<glyph unicode="&#xaa;" horiz-adv-x="718" d="M33 965q0 100 64.5 134t191.5 38l96 4v10q0 20 -49 20l-273 -14l-4 168q145 39 297 39t223.5 -45t71.5 -150v-211q8 -6 33 -10l-4 -160q-90 -12 -119 -12q-76 0 -137 39q-74 -39 -166 -39q-225 0 -225 189zM301 971q0 -23 32 -23t52 17v41l-37 -2q-47 -2 -47 -33z" />
<glyph unicode="&#xab;" horiz-adv-x="1277" d="M29 492v43l329 481l328 -152l-233 -346l233 -346l-332 -152zM582 492v43l329 481l328 -152l-233 -346l233 -346l-332 -152z" />
<glyph unicode="&#xac;" d="M2 803v309h1098v-639h-309v330h-789z" />
<glyph unicode="&#xad;" horiz-adv-x="729" d="M59 330v370h611v-370h-611z" />
<glyph unicode="&#xae;" horiz-adv-x="1222" d="M47 891q0 250 160 414.5t407.5 164.5t404.5 -168.5t157 -416.5t-156 -413t-403.5 -165t-408.5 167t-161 417zM174 888.5q0 -188.5 127 -323.5t312.5 -135t310.5 133t125 323.5t-126 326t-310.5 135.5t-311.5 -135.5t-127 -324zM365 565v645h278q106 0 170 -52t64 -147.5 t-16.5 -139.5t-61.5 -80l84 -226h-205l-57 191h-60v-191h-196zM559 901h57q70 0 70 81t-72 81h-55v-162z" />
<glyph unicode="&#xaf;" horiz-adv-x="907" d="M123 1153v295h670v-295h-670z" />
<glyph unicode="&#xb0;" d="M256 1106q0 137 85 222t222 85t222 -85t85 -222t-85 -221t-222 -84t-222 84t-85 221zM492 1107q0 -34 19 -54.5t52 -20.5t54.5 20.5t21.5 53.5t-20.5 54.5t-54.5 21.5t-53 -20.5t-19 -54.5z" />
<glyph unicode="&#xb1;" d="M90 0v348h946v-348h-946zM90 514v348h289v172h369v-172h288v-348h-288v-145h-369v145h-289z" />
<glyph unicode="&#xb2;" horiz-adv-x="716" d="M88 559v229l113 103q25 25 60.5 57.5t51 47t31.5 34.5q29 35 29 70q0 47 -94 47l-175 -10l-12 211q135 33 268 32q270 0 271 -243q0 -55 -8 -76l-11 -35q-4 -12 -17 -30.5t-19.5 -28t-26.5 -29.5l-33 -33q-51 -51 -80 -76l-41 -30h221v-240h-528z" />
<glyph unicode="&#xb3;" horiz-adv-x="716" d="M68 592l6 207q137 -12 188 -12.5t66 1.5q39 4 38.5 38t-63.5 38h-168v209h158q63 0 63 37t-82 37l-194 -10l-6 202q154 33 235 33q176 0 255 -49t79 -176q0 -63 -16.5 -98t-57.5 -64q45 -35 64.5 -68.5t19.5 -95.5q0 -147 -76.5 -204.5t-238.5 -57.5q-98 0 -227 25z" />
<glyph unicode="&#xb4;" horiz-adv-x="1705" d="M360 1141l89 340h485l-223 -340h-351z" />
<glyph unicode="&#xb5;" d="M43 -508v1542h459v-504q0 -94 11 -127.5t42 -33.5l90 12v653h459v-1034h-455l-2 45q-59 -39 -145 -45v-508h-459z" />
<glyph unicode="&#xb6;" horiz-adv-x="1183" d="M33 930q0 209 142 356.5t345 147.5h621v-387h-144v-1047h-467v430h-14q-203 0 -343 145.5t-140 354.5z" />
<glyph unicode="&#xb7;" horiz-adv-x="542" d="M61 305v410h420v-410h-420z" />
<glyph unicode="&#xb8;" horiz-adv-x="1705" d="M737 -451l8 160q63 -2 99 -2q78 0 78 45q0 25 -16.5 33t-61.5 8h-19v230h150v-91q162 -2 222 -37.5t60 -148.5t-64.5 -166t-195.5 -53q-133 0 -225 16z" />
<glyph unicode="&#xb9;" horiz-adv-x="716" d="M43 1204l289 168h276v-813h-321v453l-170 -70z" />
<glyph unicode="&#xba;" horiz-adv-x="722" d="M31 1070q0 159 77.5 226.5t254 67.5t253 -67.5t76.5 -226.5t-76.5 -226.5t-253 -67.5t-254 67.5t-77.5 226.5zM299 1071q0 -90 63 -90q33 0 47.5 20.5t14.5 69.5t-14.5 68.5t-48 19.5t-48 -19.5t-14.5 -68.5z" />
<glyph unicode="&#xbb;" horiz-adv-x="1277" d="M39 172l233 346l-233 346l332 152l325 -471v-43l-329 -482zM592 172l233 346l-233 346l332 152l325 -471v-43l-329 -482z" />
<glyph unicode="&#xbc;" horiz-adv-x="1982" d="M43 1204l289 168h276v-813h-321v453l-170 -70zM528 10l621 1536l301 -131l-621 -1536zM1223 98v201l110 514h324l-160 -483h59v112l302 37v-149h30v-232h-30v-98h-302v98h-333z" />
<glyph unicode="&#xbd;" horiz-adv-x="1964" d="M43 1204l289 168h276v-813h-321v453l-170 -70zM528 10l621 1536l301 -131l-621 -1536zM1321 0v229l113 103q25 25 60.5 57.5t51 47t31.5 34.5q29 37 29 70q0 47 -95 47l-174 -10l-12 210q135 33 268 33q270 0 271 -243q0 -55 -9 -78l-10 -33q-4 -12 -17 -30.5t-19.5 -28 t-26.5 -31.5l-33 -29q-51 -53 -80 -78l-41 -30h221v-240h-528z" />
<glyph unicode="&#xbe;" horiz-adv-x="3379" d="M88 592l6 207q137 -12 188.5 -12.5t65.5 1.5q39 4 39 38t-63 38h-168v209h157q63 0 63.5 37t-81.5 37l-195 -10l-6 202q154 33 236 33q176 0 255 -49t79 -176q0 -63 -16.5 -98t-57.5 -64q45 -35 64.5 -68.5t19.5 -95.5q0 -147 -77 -204.5t-239 -57.5q-98 0 -227 25z M528 10l621 1536l301 -131l-621 -1536zM1223 98v201l110 514h324l-160 -483h59v112l302 37v-149h30v-232h-30v-98h-302v98h-333z" />
<glyph unicode="&#xbf;" horiz-adv-x="964" d="M33 18q0 152 38 222.5t142 144.5q158 113 162 166l2 39h358q47 -63 47 -149.5t-33.5 -134.5t-125 -115.5t-109.5 -90t-18 -62.5t28.5 -57.5t93.5 -17.5q127 0 256 21l44 8l14 -322q-231 -76 -457.5 -76t-334 96.5t-107.5 327.5zM319 666v368h467v-368h-467z" />
<glyph unicode="&#xc0;" horiz-adv-x="1308" d="M-10 0l303 1372h719l309 -1372h-479l-39 158h-314l-32 -158h-467zM301 1739h496l69 -279h-352zM551 520h203l-74 479h-51z" />
<glyph unicode="&#xc1;" horiz-adv-x="1308" d="M-10 0l303 1372h719l309 -1372h-479l-39 158h-314l-32 -158h-467zM377 1460l88 279h496l-224 -279h-360zM551 520h203l-74 479h-51z" />
<glyph unicode="&#xc2;" horiz-adv-x="1308" d="M-10 0l303 1372h719l309 -1372h-479l-39 158h-314l-32 -158h-467zM283 1460l206 279h312l229 -279h-346l-31 127l-24 -127h-346zM551 520h203l-74 479h-51z" />
<glyph unicode="&#xc3;" horiz-adv-x="1308" d="M-10 0l303 1372h719l309 -1372h-479l-39 158h-314l-32 -158h-467zM281 1694q35 41 102.5 81t127.5 40t164.5 -33t127.5 -33q41 0 135 37l31 10l59 -219q-12 -12 -33.5 -32.5t-79 -53.5t-110.5 -33t-163 35t-136 35q-55 0 -137 -37l-29 -14zM551 520h203l-74 479h-51z" />
<glyph unicode="&#xc4;" horiz-adv-x="1308" d="M-10 0l303 1372h719l309 -1372h-479l-39 158h-314l-32 -158h-467zM279 1460v295h329v-295h-329zM551 520h203l-74 479h-51zM702 1460v295h330v-295h-330z" />
<glyph unicode="&#xc5;" horiz-adv-x="1308" d="M-10 0l303 1372h113q-31 39 -31 107q0 197 280 196q127 0 204 -48t77 -148q0 -61 -33 -107h109l309 -1372h-479l-39 158h-314l-32 -158h-467zM551 520h203l-74 479h-51zM594 1478q0 -44 62.5 -44t62.5 44t-62.5 44t-62.5 -44z" />
<glyph unicode="&#xc6;" horiz-adv-x="1806" d="M-10 0l303 1372h1479v-379h-560v-123h437v-362h-437v-129h560v-379h-1022v158h-261l-32 -158h-467zM553 524h197v469h-121z" />
<glyph unicode="&#xc7;" horiz-adv-x="1091" d="M37 699.5q0 398.5 126 549t480 150.5q147 0 348 -41l72 -15l-12 -366q-168 20 -310.5 20t-183.5 -54t-41 -224t19.5 -235.5t62.5 -87t139 -21.5l320 12l6 -360q-184 -45 -387 -52v-20q162 -2 222 -38t60 -148.5t-64.5 -166t-195.5 -53.5q-106 0 -225 17l-35 6l8 160 q63 -2 99 -2q78 0 78 45q0 25 -16.5 33t-61.5 8h-19v161q-281 16 -385 170t-104 552.5z" />
<glyph unicode="&#xc8;" horiz-adv-x="1124" d="M61 0v1372h1029v-379h-553v-116h430v-375h-430v-123h553v-379h-1029zM231 1739h496l70 -279h-353z" />
<glyph unicode="&#xc9;" horiz-adv-x="1124" d="M61 0v1372h1029v-379h-553v-116h430v-375h-430v-123h553v-379h-1029zM297 1460l88 279h496l-224 -279h-360z" />
<glyph unicode="&#xca;" horiz-adv-x="1124" d="M61 0v1372h1029v-379h-553v-116h430v-375h-430v-123h553v-379h-1029zM193 1460l206 279h312l229 -279h-346l-31 127l-24 -127h-346z" />
<glyph unicode="&#xcb;" horiz-adv-x="1124" d="M61 0v1372h1029v-379h-553v-116h430v-375h-430v-123h553v-379h-1029zM199 1460v295h329v-295h-329zM623 1460v295h329v-295h-329z" />
<glyph unicode="&#xcc;" horiz-adv-x="585" d="M-61 1739h495l70 -279h-352zM61 0v1372h463v-1372h-463z" />
<glyph unicode="&#xcd;" horiz-adv-x="598" d="M61 0v1372h476v-1372h-476zM82 1460l88 279h496l-224 -279h-360z" />
<glyph unicode="&#xce;" horiz-adv-x="585" d="M-80 1460l207 279h311l230 -279h-346l-31 127l-25 -127h-346zM61 0v1372h463v-1372h-463z" />
<glyph unicode="&#xcf;" horiz-adv-x="598" d="M-78 1460v295h330v-295h-330zM61 0v1372h476v-1372h-476zM346 1460v295h330v-295h-330z" />
<glyph unicode="&#xd0;" horiz-adv-x="1353" d="M-2 553v281h78v538h579q354 0 510 -159.5t156 -511t-149.5 -526.5t-495.5 -175h-600v553h-78zM551 387h84q106 0 156 53q51 53 51 237.5t-38 246t-169 61.5h-84v-151h113v-281h-113v-166z" />
<glyph unicode="&#xd1;" horiz-adv-x="1409" d="M61 0v1372h467l316 -520h28v520h476v-1372h-469l-312 559h-30v-559h-476zM330 1694q35 41 102.5 81t128 40t164.5 -33t127 -33q41 0 135 37l31 10l59 -219q-12 -12 -33.5 -32.5t-79 -53.5t-110.5 -33t-162.5 35t-136.5 35q-55 0 -137 -37l-29 -14z" />
<glyph unicode="&#xd2;" horiz-adv-x="1372" d="M33 687q0 374 155.5 543t497.5 169t497.5 -169t155.5 -544t-155.5 -544t-496.5 -169t-497.5 170t-156.5 544zM322 1739h495l70 -279h-352zM512 686q0 -174 34 -251t141.5 -77t140 76t32.5 253t-31.5 252t-140 75t-142.5 -77t-34 -251z" />
<glyph unicode="&#xd3;" horiz-adv-x="1372" d="M33 687q0 374 155.5 543t497.5 169t497.5 -169t155.5 -544t-155.5 -544t-496.5 -169t-497.5 170t-156.5 544zM416 1460l88 279h495l-223 -279h-360zM512 686q0 -174 34 -251t141.5 -77t140 76t32.5 253t-31.5 252t-140 75t-142.5 -77t-34 -251z" />
<glyph unicode="&#xd4;" horiz-adv-x="1372" d="M33 687q0 374 155.5 543t497.5 169t497.5 -169t155.5 -544t-155.5 -544t-496.5 -169t-497.5 170t-156.5 544zM313 1460l207 279h311l230 -279h-346l-31 127l-25 -127h-346zM512 686q0 -174 34 -251t141.5 -77t140 76t32.5 253t-31.5 252t-140 75t-142.5 -77t-34 -251z " />
<glyph unicode="&#xd5;" horiz-adv-x="1372" d="M33 687q0 374 155.5 543t497.5 169t497.5 -169t155.5 -544t-155.5 -544t-496.5 -169t-497.5 170t-156.5 544zM313 1694q35 41 102.5 81t128 40t165 -33t127.5 -33q41 0 135 37l30 10l60 -219q-12 -12 -33.5 -32.5t-79 -53.5t-111 -33t-163 35t-135.5 35q-55 0 -138 -37 l-28 -14zM512 686q0 -174 34 -251t141.5 -77t140 76t32.5 253t-31.5 252t-140 75t-142.5 -77t-34 -251z" />
<glyph unicode="&#xd6;" horiz-adv-x="1372" d="M33 687q0 374 155.5 543t497.5 169t497.5 -169t155.5 -544t-155.5 -544t-496.5 -169t-497.5 170t-156.5 544zM309 1460v295h330v-295h-330zM512 686q0 -174 34 -251t141.5 -77t140 76t32.5 253t-31.5 252t-140 75t-142.5 -77t-34 -251zM733 1460v295h330v-295h-330z" />
<glyph unicode="&#xd7;" d="M51 256l258 262l-258 262l252 250l258 -260l260 260l254 -252l-260 -260l260 -260l-252 -252l-262 258l-258 -258z" />
<glyph unicode="&#xd8;" horiz-adv-x="1372" d="M33 670q0 391 155.5 560t497.5 169l57 -2l37 86l445 -90l-60 -146q174 -168 174 -552t-155.5 -553t-497.5 -169h-39l-33 -84l-444 91q6 18 53 129q-190 170 -190 561zM512 686q0 -174 34 -251t141.5 -77t140 76t32.5 253t-31.5 252t-140 75t-142.5 -77t-34 -251z" />
<glyph unicode="&#xd9;" horiz-adv-x="1298" d="M53 492v880h463v-899q0 -59 29.5 -83.5t103.5 -24.5t103.5 24.5t29.5 83.5v899h463v-872q0 -289 -143.5 -408t-452.5 -119t-452.5 115t-143.5 404zM348 1739h496l69 -279h-352z" />
<glyph unicode="&#xda;" horiz-adv-x="1312" d="M53 492v880h475v-899q0 -59 30 -83.5t99.5 -24.5t98 24.5t28.5 83.5v899h476v-872q0 -291 -145.5 -409t-458 -118t-458 115t-145.5 404zM381 1460l88 279h496l-224 -279h-360z" />
<glyph unicode="&#xdb;" horiz-adv-x="1298" d="M53 492v880h463v-899q0 -59 29.5 -83.5t103.5 -24.5t103.5 24.5t29.5 83.5v899h463v-872q0 -289 -143.5 -408t-452.5 -119t-452.5 115t-143.5 404zM276 1460l207 279h312l229 -279h-346l-31 127l-24 -127h-347z" />
<glyph unicode="&#xdc;" horiz-adv-x="1312" d="M53 492v880h475v-899q0 -59 30 -83.5t99.5 -24.5t98 24.5t28.5 83.5v899h476v-872q0 -291 -145.5 -409t-458 -118t-458 115t-145.5 404zM279 1460v295h329v-295h-329zM702 1460v295h330v-295h-330z" />
<glyph unicode="&#xdd;" horiz-adv-x="1208" d="M-27 1372h504l129 -403l133 403h502l-401 -942v-430h-475v430zM395 1460l88 279h496l-223 -279h-361z" />
<glyph unicode="&#xde;" horiz-adv-x="1251" d="M61 0v1372h463v-143h70q160 0 268.5 -23.5t190.5 -83.5q158 -111 157.5 -424t-149 -432t-467.5 -119h-70v-147h-463zM524 522h49q92 0 131 38t39 133t-36.5 128t-133.5 33h-49v-332z" />
<glyph unicode="&#xdf;" horiz-adv-x="1427" d="M57 0v928q0 295 140.5 403.5t472 108.5t461 -81t129.5 -257q0 -100 -23 -139t-102.5 -82t-101 -60.5t-21.5 -43t29.5 -43t154.5 -62.5t173 -108.5t48 -205.5q0 -207 -87 -296t-306 -89q-213 0 -373 37l-53 13l14 301q160 -20 285 -21q78 0 78 39q0 14 -35 31.5 t-152.5 62.5t-157.5 96.5t-40 128t25.5 121.5t103.5 107.5t78 101.5q0 63 -96.5 63.5t-140.5 -25t-44 -87.5v-942h-459z" />
<glyph unicode="&#xe0;" horiz-adv-x="1140" d="M20 323.5q0 184.5 104.5 247t330.5 70.5l147 6v19q0 39 -86 39q-186 0 -373 -21l-67 -6l-10 311q270 72 493 72q233 0 363 -70q139 -74 139 -291v-389q18 -14 49 -22l-6 -291q-160 -25 -219.5 -25t-108.5 17.5t-65 36.5l-17 18q-127 -72 -308 -72t-273.5 83t-92.5 267.5z M193 1481h485l88 -340h-350zM479 338q0 -49 45 -49q39 0 78 30v76l-70 -4q-53 -4 -53 -53z" />
<glyph unicode="&#xe1;" horiz-adv-x="1140" d="M20 323.5q0 184.5 104.5 247t330.5 70.5l147 6v19q0 39 -86 39q-186 0 -373 -21l-67 -6l-10 311q270 72 493 72q233 0 363 -70q139 -74 139 -291v-389q18 -14 49 -22l-6 -291q-160 -25 -219.5 -25t-108.5 17.5t-65 36.5l-17 18q-127 -72 -308 -72t-273.5 83t-92.5 267.5z M365 1141l88 340h485l-223 -340h-350zM479 338q0 -49 45 -49q39 0 78 30v76l-70 -4q-53 -4 -53 -53z" />
<glyph unicode="&#xe2;" horiz-adv-x="1140" d="M20 323.5q0 184.5 104.5 247t330.5 70.5l147 6v19q0 39 -86 39q-186 0 -373 -21l-67 -6l-10 311q270 72 493 72q233 0 363 -70q139 -74 139 -291v-389q18 -14 49 -22l-6 -291q-160 -25 -219.5 -25t-108.5 17.5t-65 36.5l-17 18q-127 -72 -308 -72t-273.5 83t-92.5 267.5z M207 1141l186 340h324l209 -340h-332l-31 147l-24 -147h-332zM479 338q0 -49 45 -49q39 0 78 30v76l-70 -4q-53 -4 -53 -53z" />
<glyph unicode="&#xe3;" horiz-adv-x="1140" d="M20 323.5q0 184.5 104.5 247t330.5 70.5l147 6v19q0 39 -86 39q-186 0 -373 -21l-67 -6l-10 311q270 72 493 72q233 0 363 -70q139 -74 139 -291v-389q18 -14 49 -22l-6 -291q-160 -25 -219.5 -25t-108.5 17.5t-65 36.5l-17 18q-127 -72 -308 -72t-273.5 83t-92.5 267.5z M193 1366q41 49 105 90t124.5 41t165 -44t127.5 -44q43 0 137 61l29 19l59 -240q-43 -49 -106.5 -89t-116.5 -40t-163 45t-136 45q-51 0 -137 -61l-29 -21zM479 338q0 -49 45 -49q39 0 78 30v76l-70 -4q-53 -4 -53 -53z" />
<glyph unicode="&#xe4;" horiz-adv-x="1140" d="M20 323.5q0 184.5 104.5 247t330.5 70.5l147 6v19q0 39 -86 39q-186 0 -373 -21l-67 -6l-10 311q270 72 493 72q233 0 363 -70q139 -74 139 -291v-389q18 -14 49 -22l-6 -291q-160 -25 -219.5 -25t-108.5 17.5t-65 36.5l-17 18q-127 -72 -308 -72t-273.5 83t-92.5 267.5z M182 1145v315h336v-315h-336zM479 338q0 -49 45 -49q39 0 78 30v76l-70 -4q-53 -4 -53 -53zM612 1145v315h336v-315h-336z" />
<glyph unicode="&#xe5;" horiz-adv-x="1140" d="M20 323.5q0 184.5 104.5 247t330.5 70.5l147 6v19q0 39 -86 39q-186 0 -373 -21l-67 -6l-10 311q270 72 493 72q233 0 363 -70q139 -74 139 -291v-389q18 -14 49 -22l-6 -291q-160 -25 -219.5 -25t-108.5 17.5t-65 36.5l-17 18q-127 -72 -308 -72t-273.5 83t-92.5 267.5z M291 1314.5q0 102.5 73.5 153t199.5 50.5t201 -50.5t75 -150.5t-73 -152.5t-201 -52.5t-201.5 50t-73.5 152.5zM479 338q0 -49 45 -49q39 0 78 30v76l-70 -4q-53 -4 -53 -53zM504 1314q0 -44 62.5 -44t62.5 44t-62.5 44t-62.5 -44z" />
<glyph unicode="&#xe6;" horiz-adv-x="1652" d="M20 322q0 154 68 227q72 80 363 92l139 6v19q0 39 -86 39q-184 0 -363 -21l-65 -6l-10 311q258 72 473 72t297 -53q96 53 254 53q268 0 401 -117t133 -358l-20 -203h-592q2 -72 94 -72q203 0 410 13l77 6l11 -297q-272 -59 -498.5 -59.5t-321.5 69.5q-209 -70 -391 -70 q-373 0 -373 349zM467 338q0 -49 45 -49q39 0 78 30v76l-70 -4q-53 -4 -53 -53zM1010 633h159q0 59 -18 83.5t-62.5 24.5t-60.5 -24.5t-18 -83.5z" />
<glyph unicode="&#xe7;" horiz-adv-x="954" d="M35 537.5q0 287.5 116.5 405.5t395.5 118q141 0 313 -41l58 -12l-15 -363q-211 16 -282.5 16.5t-97 -31.5t-25.5 -113t25.5 -111.5t90.5 -30.5l293 14l15 -358q-176 -51 -347 -58v-41q162 -2 222.5 -37.5t60.5 -148.5t-64.5 -166t-195.5 -53q-133 0 -225 16l-35 6l8 160 q63 -2 98 -2q78 0 78 45q0 25 -16.5 33t-61.5 8h-18v187q-221 23 -306 146.5t-85 411z" />
<glyph unicode="&#xe8;" horiz-adv-x="1130" d="M31 498.5q0 277.5 129 420t402.5 142.5t406.5 -117t133 -358l-21 -203h-592q2 -72 93 -72q205 0 409 13l80 6l10 -297q-272 -59 -541.5 -59.5t-389 123.5t-119.5 401.5zM215 1481h485l88 -340h-350zM487 633h156q0 59 -17.5 83.5t-60.5 24.5t-59.5 -24.5t-18.5 -83.5z " />
<glyph unicode="&#xe9;" horiz-adv-x="1130" d="M31 498.5q0 277.5 129 420t402.5 142.5t406.5 -117t133 -358l-21 -203h-592q2 -72 93 -72q205 0 409 13l80 6l10 -297q-272 -59 -541.5 -59.5t-389 123.5t-119.5 401.5zM342 1141l88 340h485l-223 -340h-350zM487 633h156q0 59 -17.5 83.5t-60.5 24.5t-59.5 -24.5 t-18.5 -83.5z" />
<glyph unicode="&#xea;" horiz-adv-x="1130" d="M31 498.5q0 277.5 129 420t402.5 142.5t406.5 -117t133 -358l-21 -203h-592q2 -72 93 -72q205 0 409 13l80 6l10 -297q-272 -59 -541.5 -59.5t-389 123.5t-119.5 401.5zM207 1141l186 340h324l209 -340h-332l-31 147l-24 -147h-332zM487 633h156q0 59 -17.5 83.5 t-60.5 24.5t-59.5 -24.5t-18.5 -83.5z" />
<glyph unicode="&#xeb;" horiz-adv-x="1130" d="M31 498.5q0 277.5 129 420t402.5 142.5t406.5 -117t133 -358l-21 -203h-592q2 -72 93 -72q205 0 409 13l80 6l10 -297q-272 -59 -541.5 -59.5t-389 123.5t-119.5 401.5zM182 1145v315h336v-315h-336zM487 633h156q0 59 -17.5 83.5t-60.5 24.5t-59.5 -24.5t-18.5 -83.5z M612 1145v315h336v-315h-336z" />
<glyph unicode="&#xec;" horiz-adv-x="573" d="M-78 1481h486l88 -340h-351zM57 0v1034h459v-1034h-459z" />
<glyph unicode="&#xed;" horiz-adv-x="573" d="M57 0v1034h459v-1034h-459zM78 1141l88 340h485l-223 -340h-350z" />
<glyph unicode="&#xee;" horiz-adv-x="573" d="M-72 1141l187 340h323l209 -340h-332l-30 147l-25 -147h-332zM57 0v1034h459v-1034h-459z" />
<glyph unicode="&#xef;" horiz-adv-x="573" d="M-98 1145v315h336v-315h-336zM57 0v1034h459v-1034h-459zM332 1145v315h336v-315h-336z" />
<glyph unicode="&#xf0;" horiz-adv-x="1083" d="M12 433q0 226 113 348t321.5 122t255.5 -37q-23 156 -139 226l-272 -183l-129 183l137 90q-92 18 -205 37l39 225q287 -10 463 -66l190 127l127 -182l-88 -59q223 -172 223.5 -547t-130 -555t-414.5 -180q-246 0 -369 112.5t-123 338.5zM360 437q0 -77 32 -121t112 -44 q197 0 196 314q-92 32 -215 32q-63 0 -94 -52t-31 -129z" />
<glyph unicode="&#xf1;" horiz-adv-x="1183" d="M57 0v1034h457v-53q129 80 225 80q221 0 309.5 -120t88.5 -423v-518h-459v487q0 178 -74 179l-88 -15v-651h-459zM233 1366q41 49 105.5 90t125 41t165 -44t127.5 -44q43 0 137 61l29 19l59 -240q-43 -49 -106.5 -89t-116.5 -40t-163 45t-136 45q-51 0 -137 -61l-29 -21z " />
<glyph unicode="&#xf2;" horiz-adv-x="1155" d="M31 516q0 289 136 417t410.5 128t410.5 -128t136 -417t-136 -416t-410.5 -127t-410.5 127t-136 416zM205 1481h485l88 -340h-350zM494 517q0 -99 18 -136t65.5 -37t66 37t18.5 136t-18.5 136t-66 37t-65.5 -37t-18 -136z" />
<glyph unicode="&#xf3;" horiz-adv-x="1155" d="M31 516q0 289 136 417t410.5 128t410.5 -128t136 -417t-136 -416t-410.5 -127t-410.5 127t-136 416zM377 1141l88 340h485l-223 -340h-350zM494 517q0 -99 18 -136t65.5 -37t66 37t18.5 136t-18.5 136t-66 37t-65.5 -37t-18 -136z" />
<glyph unicode="&#xf4;" horiz-adv-x="1155" d="M31 516q0 289 136 417t410.5 128t410.5 -128t136 -417t-136 -416t-410.5 -127t-410.5 127t-136 416zM219 1141l187 340h323l209 -340h-332l-31 147l-24 -147h-332zM494 517q0 -99 18 -136t65.5 -37t66 37t18.5 136t-18.5 136t-66 37t-65.5 -37t-18 -136z" />
<glyph unicode="&#xf5;" horiz-adv-x="1155" d="M31 516q0 289 136 417t410.5 128t410.5 -128t136 -417t-136 -416t-410.5 -127t-410.5 127t-136 416zM205 1366q41 49 105.5 90t125 41t165 -44t126.5 -44q43 0 137 61l29 19l59 -240q-43 -49 -106.5 -89t-116.5 -40t-162.5 45t-136.5 45q-51 0 -137 -61l-29 -21zM494 517 q0 -99 18 -136t65.5 -37t66 37t18.5 136t-18.5 136t-66 37t-65.5 -37t-18 -136z" />
<glyph unicode="&#xf6;" horiz-adv-x="1155" d="M31 516q0 289 136 417t410.5 128t410.5 -128t136 -417t-136 -416t-410.5 -127t-410.5 127t-136 416zM195 1145v315h335v-315h-335zM494 517q0 -99 18 -136t65.5 -37t66 37t18.5 136t-18.5 136t-66 37t-65.5 -37t-18 -136zM625 1145v315h336v-315h-336z" />
<glyph unicode="&#xf7;" d="M88 348v348h950v-348h-950zM358 20v287h410v-287h-410zM358 737v287h410v-287h-410z" />
<glyph unicode="&#xf8;" horiz-adv-x="1155" d="M-10 -61l127 221q-86 129 -86 358q0 287 136 415t411 128q35 0 53 -2l84 147l112 -22q111 -20 222 -43l110 -23l-131 -231q96 -131 96 -369q0 -291 -136 -418t-410 -127l-72 2l-72 -127zM494 517q0 -99 18 -136t65.5 -37t66 37t18.5 136t-18.5 136t-66 37t-65.5 -37 t-18 -136z" />
<glyph unicode="&#xf9;" horiz-adv-x="1181" d="M47 500v534h459v-504q0 -92 16.5 -126.5t52.5 -34.5l91 12v653h458v-1034h-454v49q-131 -76 -234 -76q-217 0 -303 126t-86 401zM240 1481h485l88 -340h-350z" />
<glyph unicode="&#xfa;" horiz-adv-x="1181" d="M47 500v534h459v-504q0 -92 16.5 -126.5t52.5 -34.5l91 12v653h458v-1034h-454v49q-131 -76 -234 -76q-217 0 -303 126t-86 401zM381 1141l88 340h485l-223 -340h-350z" />
<glyph unicode="&#xfb;" horiz-adv-x="1181" d="M47 500v534h459v-504q0 -92 16.5 -126.5t52.5 -34.5l91 12v653h458v-1034h-454v49q-131 -76 -234 -76q-217 0 -303 126t-86 401zM238 1141l186 340h324l208 -340h-331l-31 147l-25 -147h-331z" />
<glyph unicode="&#xfc;" horiz-adv-x="1181" d="M47 500v534h459v-504q0 -92 16.5 -126.5t52.5 -34.5l91 12v653h458v-1034h-454v49q-131 -76 -234 -76q-217 0 -303 126t-86 401zM213 1145v315h336v-315h-336zM643 1145v315h336v-315h-336z" />
<glyph unicode="&#xfd;" horiz-adv-x="1118" d="M2 1034h487l74 -651h29l65 651h461l-244 -1433h-503l129 399h-324zM369 1141l88 340h485l-223 -340h-350z" />
<glyph unicode="&#xfe;" horiz-adv-x="1165" d="M55 -399v1839h459v-412q137 33 213 33q217 0 311.5 -139.5t94.5 -415t-103.5 -404.5t-347.5 -129q-47 0 -141 21l-27 6v-399h-459zM514 350q27 -6 66 -6q90 0 90 180q0 96 -20.5 131t-69.5 35l-66 -14v-326z" />
<glyph unicode="&#xff;" horiz-adv-x="1118" d="M2 1034h487l74 -651h29l65 651h461l-244 -1433h-503l129 399h-324zM176 1145v315h336v-315h-336zM606 1145v315h336v-315h-336z" />
<glyph unicode="&#x100;" horiz-adv-x="1308" d="M-10 0l303 1372h719l309 -1372h-479l-39 158h-314l-32 -158h-467zM326 1460v279h657v-279h-657zM551 520h203l-74 479h-51z" />
<glyph unicode="&#x101;" horiz-adv-x="1140" d="M20 323.5q0 184.5 104.5 247t330.5 70.5l147 6v19q0 39 -86 39q-186 0 -373 -21l-67 -6l-10 311q270 72 493 72q233 0 363 -70q139 -74 139 -291v-389q18 -14 49 -22l-6 -291q-160 -25 -219.5 -25t-108.5 17.5t-65 36.5l-17 18q-127 -72 -308 -72t-273.5 83t-92.5 267.5z M231 1153v295h670v-295h-670zM479 338q0 -49 45 -49q39 0 78 30v76l-70 -4q-53 -4 -53 -53z" />
<glyph unicode="&#x102;" horiz-adv-x="1308" d="M-10 0l303 1372h719l309 -1372h-479l-39 158h-314l-32 -158h-467zM328 1765l237 21q10 -92 90 -92t90 92l238 -21q0 -133 -76 -220t-252 -87t-251.5 87t-75.5 220zM551 520h203l-74 479h-51z" />
<glyph unicode="&#x103;" horiz-adv-x="1140" d="M20 323.5q0 184.5 104.5 247t330.5 70.5l147 6v19q0 39 -86 39q-186 0 -373 -21l-67 -6l-10 311q270 72 493 72q233 0 363 -70q139 -74 139 -291v-389q18 -14 49 -22l-6 -291q-160 -25 -219.5 -25t-108.5 17.5t-65 36.5l-17 18q-127 -72 -308 -72t-273.5 83t-92.5 267.5z M229 1450l238 20q10 -92 90 -92t90 92l238 -20q0 -328 -328 -328t-328 328zM479 338q0 -49 45 -49q39 0 78 30v76l-70 -4q-53 -4 -53 -53z" />
<glyph unicode="&#x104;" horiz-adv-x="1308" d="M-10 0l303 1372h719l309 -1370v-2h-4q-59 -29 -111.5 -83t-52.5 -85q0 -45 45 -45l94 8l27 -213q-101 -31 -279 -31q-317 0 -317 238q0 131 119 211l-39 158h-314l-32 -158h-467zM551 520h203l-74 479h-51z" />
<glyph unicode="&#x105;" horiz-adv-x="1140" d="M20 323.5q0 184.5 104.5 247t330.5 70.5l147 6v19q0 39 -86 39q-186 0 -373 -21l-67 -6l-10 311q270 72 493 72q233 0 363 -70q139 -74 139 -291v-389q18 -14 49 -22l-6 -291q-25 -4 -55 -8q-104 -100 -104.5 -152.5t44.5 -52.5l94 8l27 -213q-101 -31 -279 -31 q-317 0 -317 238q0 160 184 252l-4 6q-127 -72 -308 -72t-273.5 83t-92.5 267.5zM479 338q0 -49 45 -49q39 0 78 30v76l-70 -4q-53 -4 -53 -53z" />
<glyph unicode="&#x106;" horiz-adv-x="1091" d="M37 690q0 408 126 558.5t480 150.5q147 0 348 -41l72 -15l-12 -366q-168 20 -310.5 20t-183.5 -54t-41 -224t19.5 -235.5t62.5 -87t139 -21.5l320 12l6 -360q-217 -53 -444.5 -53.5t-350.5 64t-177 216.5t-54 436zM365 1460l88 279h495l-223 -279h-360z" />
<glyph unicode="&#x107;" horiz-adv-x="952" d="M33 521q0 304 116.5 422t395.5 118q141 0 313 -41l57 -12l-14 -363q-211 16 -282.5 16.5t-97 -31.5t-25.5 -113t25.5 -111.5t90.5 -30.5l293 14l15 -358q-197 -57 -375 -58q-295 0 -403.5 122t-108.5 426zM242 1141l88 340h485l-223 -340h-350z" />
<glyph unicode="&#x108;" horiz-adv-x="1091" d="M37 690q0 408 126 558.5t480 150.5q147 0 348 -41l72 -15l-12 -366q-168 20 -310.5 20t-183.5 -54t-41 -224t19.5 -235.5t62.5 -87t139 -21.5l320 12l6 -360q-217 -53 -444.5 -53.5t-350.5 64t-177 216.5t-54 436zM217 1460l207 279h311l230 -279h-347l-30 127l-25 -127 h-346z" />
<glyph unicode="&#x109;" horiz-adv-x="952" d="M33 521q0 304 116.5 422t395.5 118q141 0 313 -41l57 -12l-14 -363q-211 16 -282.5 16.5t-97 -31.5t-25.5 -113t25.5 -111.5t90.5 -30.5l293 14l15 -358q-197 -57 -375 -58q-295 0 -403.5 122t-108.5 426zM117 1141l186 340h324l209 -340h-332l-31 147l-24 -147h-332z " />
<glyph unicode="&#x10a;" horiz-adv-x="1091" d="M37 690q0 408 126 558.5t480 150.5q147 0 348 -41l72 -15l-12 -366q-168 20 -310.5 20t-183.5 -54t-41 -224t19.5 -235.5t62.5 -87t139 -21.5l320 12l6 -360q-217 -53 -444.5 -53.5t-350.5 64t-177 216.5t-54 436zM385 1460v293h369v-293h-369z" />
<glyph unicode="&#x10b;" horiz-adv-x="952" d="M33 521q0 304 116.5 422t395.5 118q141 0 313 -41l57 -12l-14 -363q-211 16 -282.5 16.5t-97 -31.5t-25.5 -113t25.5 -111.5t90.5 -30.5l293 14l15 -358q-197 -57 -375 -58q-295 0 -403.5 122t-108.5 426zM305 1153v313h381v-313h-381z" />
<glyph unicode="&#x10c;" horiz-adv-x="1091" d="M37 690q0 408 126 558.5t480 150.5q147 0 348 -41l72 -15l-12 -366q-168 20 -310.5 20t-183.5 -54t-41 -224t19.5 -235.5t62.5 -87t139 -21.5l320 12l6 -360q-217 -53 -444.5 -53.5t-350.5 64t-177 216.5t-54 436zM197 1737h346l28 -127l27 127h346l-229 -279h-312z" />
<glyph unicode="&#x10d;" horiz-adv-x="952" d="M33 521q0 304 116.5 422t395.5 118q141 0 313 -41l57 -12l-14 -363q-211 16 -282.5 16.5t-97 -31.5t-25.5 -113t25.5 -111.5t90.5 -30.5l293 14l15 -358q-197 -57 -375 -58q-295 0 -403.5 122t-108.5 426zM117 1481h332l28 -148l27 148h332l-209 -340h-324z" />
<glyph unicode="&#x10e;" horiz-adv-x="1339" d="M61 0v1372h580q354 0 510 -159.5t156 -511t-149.5 -526.5t-495.5 -175h-601zM248 1737h346l29 -127l26 127h346l-229 -279h-311zM537 387h84q106 0 157 53q49 53 49 237.5t-37.5 246t-168.5 61.5h-84v-598z" />
<glyph unicode="&#x10f;" horiz-adv-x="1531" d="M33 516q0 545 452 545l166 -12v364h459v-1413h-453l-4 45q-113 -72 -215 -72q-225 0 -315 138.5t-90 404.5zM496 517q0 -83 18 -128t74 -45l63 6v334q-45 6 -65 6q-55 0 -72.5 -45t-17.5 -128zM1190 930l41 440h418l-127 -440h-332z" />
<glyph unicode="&#x110;" horiz-adv-x="1353" d="M-2 553v281h78v538h579q354 0 510 -159.5t156 -511t-149.5 -526.5t-495.5 -175h-600v553h-78zM551 387h84q106 0 156 53q51 53 51 237.5t-38 246t-169 61.5h-84v-151h113v-281h-113v-166z" />
<glyph unicode="&#x111;" horiz-adv-x="1167" d="M33 516q0 545 452 545l166 -12v67h-125v219h125v78h459v-78h82v-219h-82v-1116h-453l-4 45q-113 -72 -215 -72q-225 0 -315 138.5t-90 404.5zM496 517q0 -83 18 -128t74 -45l63 6v334q-45 6 -65 6q-55 0 -72.5 -45t-17.5 -128z" />
<glyph unicode="&#x112;" horiz-adv-x="1124" d="M61 0v1372h1029v-379h-553v-116h430v-375h-430v-123h553v-379h-1029zM248 1460v279h657v-279h-657z" />
<glyph unicode="&#x113;" horiz-adv-x="1130" d="M31 498.5q0 277.5 129 420t402.5 142.5t406.5 -117t133 -358l-21 -203h-592q2 -72 93 -72q205 0 409 13l80 6l10 -297q-272 -59 -541.5 -59.5t-389 123.5t-119.5 401.5zM231 1153v295h670v-295h-670zM487 633h156q0 59 -17.5 83.5t-60.5 24.5t-59.5 -24.5t-18.5 -83.5z " />
<glyph unicode="&#x114;" horiz-adv-x="1124" d="M61 0v1372h1029v-379h-553v-116h430v-375h-430v-123h553v-379h-1029zM227 1765l238 21q10 -92 90 -92t90 92l238 -21q0 -133 -76 -220t-252 -87t-252 87t-76 220z" />
<glyph unicode="&#x115;" horiz-adv-x="1130" d="M31 498.5q0 277.5 129 420t402.5 142.5t406.5 -117t133 -358l-21 -203h-592q2 -72 93 -72q205 0 409 13l80 6l10 -297q-272 -59 -541.5 -59.5t-389 123.5t-119.5 401.5zM240 1450l237 20q10 -92 90 -92t90 92l238 -20q0 -328 -327.5 -328t-327.5 328zM487 633h156 q0 59 -17.5 83.5t-60.5 24.5t-59.5 -24.5t-18.5 -83.5z" />
<glyph unicode="&#x116;" horiz-adv-x="1124" d="M61 0v1372h1029v-379h-553v-116h430v-375h-430v-123h553v-379h-1029zM391 1460v293h369v-293h-369z" />
<glyph unicode="&#x117;" horiz-adv-x="1130" d="M31 498.5q0 277.5 129 420t402.5 142.5t406.5 -117t133 -358l-21 -203h-592q2 -72 93 -72q205 0 409 13l80 6l10 -297q-272 -59 -541.5 -59.5t-389 123.5t-119.5 401.5zM385 1153v313h381v-313h-381zM487 633h156q0 59 -17.5 83.5t-60.5 24.5t-59.5 -24.5t-18.5 -83.5z " />
<glyph unicode="&#x118;" horiz-adv-x="1124" d="M61 0v1372h1029v-379h-553v-116h430v-375h-430v-123h553v-379h-50q-115 -115 -114.5 -165t45.5 -50l94 8l27 -213q-100 -31 -279 -31q-317 0 -317 238q0 127 118 213h-553z" />
<glyph unicode="&#x119;" horiz-adv-x="1130" d="M31 498.5q0 277.5 129 420t402.5 142.5t406.5 -117t133 -358l-21 -203h-592q2 -72 93 -72q205 0 409 13l80 6l10 -297q-152 -131 -151 -203q0 -45 45 -45l94 8l27 -213q-101 -31 -279 -31q-317 0 -317 238q0 109 86 186h-29q-287 0 -406.5 124t-119.5 401.5zM487 633h156 q0 59 -17.5 83.5t-60.5 24.5t-59.5 -24.5t-18.5 -83.5z" />
<glyph unicode="&#x11a;" horiz-adv-x="1124" d="M61 0v1372h1029v-379h-553v-116h430v-375h-430v-123h553v-379h-1029zM182 1737h346l29 -127l27 127h346l-230 -279h-311z" />
<glyph unicode="&#x11b;" horiz-adv-x="1130" d="M31 498.5q0 277.5 129 420t402.5 142.5t406.5 -117t133 -358l-21 -203h-592q2 -72 93 -72q205 0 409 13l80 6l10 -297q-272 -59 -541.5 -59.5t-389 123.5t-119.5 401.5zM207 1481h332l28 -148l27 148h332l-209 -340h-324zM487 633h156q0 59 -17.5 83.5t-60.5 24.5 t-59.5 -24.5t-18.5 -83.5z" />
<glyph unicode="&#x11c;" horiz-adv-x="1267" d="M35 688q0 395 147.5 553t497.5 158q104 0 235.5 -17.5t208.5 -33.5l78 -19v-358q-295 27 -419 26.5t-161.5 -11.5t-60 -26.5t-33.5 -60.5q-14 -63 -14 -223t37 -232.5t149 -72.5l70 2v102h-61l-2 332h505v-766q-371 -59 -549 -59t-304 39.5t-197.5 132t-99 217.5 t-27.5 317zM291 1460l207 279h311l229 -279h-346l-30 127l-25 -127h-346z" />
<glyph unicode="&#x11d;" horiz-adv-x="1150" d="M25 -166q0 74 28.5 131.5t102.5 114.5q-74 51 -74 153q0 23 29.5 61t60.5 62l29 27q-166 78 -166 295t117.5 300t390.5 83q68 0 178 -17l33 -6l379 6v-268h-97q18 -51 19 -84q0 -221 -113 -295.5t-383 -74.5q-41 0 -78 6q-8 -12 -8 -25q0 -20 241.5 -20t326.5 -72 t85 -261.5t-139 -295t-397.5 -105t-401.5 49.5q-164 53 -163 235zM219 1141l187 340h323l209 -340h-332l-31 147l-24 -147h-332zM399 -109q0 -27 156 -26.5t156 33.5q0 20 -27 25t-109 5l-157 9q-19 -11 -19 -46zM465 694q0 -41 18.5 -57t61.5 -16t61.5 16t18.5 57 t-18.5 57.5t-61.5 16.5t-61.5 -16.5t-18.5 -57.5z" />
<glyph unicode="&#x11e;" horiz-adv-x="1267" d="M35 688q0 395 147.5 553t497.5 158q104 0 235.5 -17.5t208.5 -33.5l78 -19v-358q-295 27 -419 26.5t-161.5 -11.5t-60 -26.5t-33.5 -60.5q-14 -63 -14 -223t37 -232.5t149 -72.5l70 2v102h-61l-2 332h505v-766q-371 -59 -549 -59t-304 39.5t-197.5 132t-99 217.5 t-27.5 317zM336 1765l237 21q10 -92 90 -92t91 92l237 -21q0 -133 -75.5 -220t-252 -87t-252 87t-75.5 220z" />
<glyph unicode="&#x11f;" horiz-adv-x="1150" d="M25 -166q0 74 28.5 131.5t102.5 114.5q-74 51 -74 153q0 23 29.5 61t60.5 62l29 27q-166 78 -166 295t117.5 300t390.5 83q68 0 178 -17l33 -6l379 6v-268h-97q18 -51 19 -84q0 -221 -113 -295.5t-383 -74.5q-41 0 -78 6q-8 -12 -8 -25q0 -20 241.5 -20t326.5 -72 t85 -261.5t-139 -295t-397.5 -105t-401.5 49.5q-164 53 -163 235zM252 1450l237 20q10 -92 90 -92t91 92l237 -20q0 -328 -327.5 -328t-327.5 328zM399 -109q0 -27 156 -26.5t156 33.5q0 20 -27 25t-109 5l-157 9q-19 -11 -19 -46zM465 694q0 -41 18.5 -57t61.5 -16t61.5 16 t18.5 57t-18.5 57.5t-61.5 16.5t-61.5 -16.5t-18.5 -57.5z" />
<glyph unicode="&#x120;" horiz-adv-x="1267" d="M35 688q0 395 147.5 553t497.5 158q104 0 235.5 -17.5t208.5 -33.5l78 -19v-358q-295 27 -419 26.5t-161.5 -11.5t-60 -26.5t-33.5 -60.5q-14 -63 -14 -223t37 -232.5t149 -72.5l70 2v102h-61l-2 332h505v-766q-371 -59 -549 -59t-304 39.5t-197.5 132t-99 217.5 t-27.5 317zM432 1446v313h381v-313h-381z" />
<glyph unicode="&#x121;" horiz-adv-x="1150" d="M25 -166q0 74 28.5 131.5t102.5 114.5q-74 51 -74 153q0 23 29.5 61t60.5 62l29 27q-166 78 -166 295t117.5 300t390.5 83q68 0 178 -17l33 -6l379 6v-268h-97q18 -51 19 -84q0 -221 -113 -295.5t-383 -74.5q-41 0 -78 6q-8 -12 -8 -25q0 -20 241.5 -20t326.5 -72 t85 -261.5t-139 -295t-397.5 -105t-401.5 49.5q-164 53 -163 235zM387 1153v313h381v-313h-381zM399 -109q0 -27 156 -26.5t156 33.5q0 20 -27 25t-109 5l-157 9q-19 -11 -19 -46zM465 694q0 -41 18.5 -57t61.5 -16t61.5 16t18.5 57t-18.5 57.5t-61.5 16.5t-61.5 -16.5 t-18.5 -57.5z" />
<glyph unicode="&#x122;" horiz-adv-x="1267" d="M35 688q0 395 147.5 553t497.5 158q104 0 235.5 -17.5t208.5 -33.5l78 -19v-358q-295 27 -419 26.5t-161.5 -11.5t-60 -26.5t-33.5 -60.5q-14 -63 -14 -223t37 -232.5t149 -72.5l70 2v102h-61l-2 332h505v-766q-371 -59 -549 -59t-304 39.5t-197.5 132t-99 217.5 t-27.5 317zM414 -532l41 440h417l-127 -440h-331z" />
<glyph unicode="&#x123;" horiz-adv-x="1150" d="M25 -166q0 74 28.5 131.5t102.5 114.5q-74 51 -74 153q0 23 29.5 61t60.5 62l29 27q-166 78 -166 295t117.5 300t390.5 83q68 0 178 -17l33 -6l379 6v-268h-97q18 -51 19 -84q0 -221 -113 -295.5t-383 -74.5q-41 0 -78 6q-8 -12 -8 -25q0 -20 241.5 -20t326.5 -72 t85 -261.5t-139 -295t-397.5 -105t-401.5 49.5q-164 53 -163 235zM340 1153l127 440h332l-41 -440h-418zM399 -109q0 -27 156 -26.5t156 33.5q0 20 -27 25t-109 5l-157 9q-19 -11 -19 -46zM465 694q0 -41 18.5 -57t61.5 -16t61.5 16t18.5 57t-18.5 57.5t-61.5 16.5 t-61.5 -16.5t-18.5 -57.5z" />
<glyph unicode="&#x124;" horiz-adv-x="1341" d="M61 0v1372h476v-506h268v506h475v-1372h-475v479h-268v-479h-476zM297 1460l207 279h311l229 -279h-346l-30 127l-25 -127h-346z" />
<glyph unicode="&#x125;" horiz-adv-x="1183" d="M57 0v1413h459v-387q143 35 219 35q223 0 312.5 -117t89.5 -409v-535h-459v487q0 178 -78 179l-84 -13v-653h-459zM233 1518l187 340h323l209 -340h-331l-31 147l-25 -147h-332z" />
<glyph unicode="&#x126;" horiz-adv-x="1349" d="M8 969v270h58v133h475v-133h268v133h475v-133h57v-270h-57v-969h-475v479h-268v-479h-475v969h-58zM541 866h268v103h-268v-103z" />
<glyph unicode="&#x127;" horiz-adv-x="1183" d="M-25 1116v219h82v78h459v-78h125v-219h-125v-90q143 35 219 35q223 0 312.5 -117t89.5 -409v-535h-459v487q0 178 -78 179l-84 -13v-653h-459v1116h-82z" />
<glyph unicode="&#x128;" horiz-adv-x="598" d="M-74 1694q35 41 102.5 81t128 40t165 -33t127.5 -33q41 0 137 37l28 10l60 -219q-12 -12 -34 -32.5t-79 -53.5t-110.5 -33t-163 35t-135.5 35q-55 0 -138 -37l-28 -14zM61 0v1372h476v-1372h-476z" />
<glyph unicode="&#x129;" horiz-adv-x="573" d="M-86 1366q41 49 105.5 90t125 41t165 -44t126.5 -44q43 0 137 61l29 19l60 -240q-43 -49 -106.5 -89t-117 -40t-163 45t-136.5 45q-51 0 -137 -61l-29 -21zM57 0v1034h459v-1034h-459z" />
<glyph unicode="&#x12a;" horiz-adv-x="598" d="M-29 1460v279h658v-279h-658zM61 0v1372h476v-1372h-476z" />
<glyph unicode="&#x12b;" horiz-adv-x="573" d="M-55 1153v295h669v-295h-669zM57 0v1034h459v-1034h-459z" />
<glyph unicode="&#x12c;" horiz-adv-x="598" d="M-29 1765l238 21q10 -92 90 -92t90 92l238 -21q0 -133 -76 -220t-252 -87t-252 87t-76 220zM61 0v1372h476v-1372h-476z" />
<glyph unicode="&#x12d;" horiz-adv-x="573" d="M-47 1450l237 20q10 -92 90 -92t91 92l237 -20q0 -328 -327.5 -328t-327.5 328zM57 0v1034h459v-1034h-459z" />
<glyph unicode="&#x12e;" horiz-adv-x="598" d="M-59 -215q0 129 122 215h-2v1372h476v-1372h-50q-117 -111 -116.5 -164t45.5 -53l94 8l27 -213q-100 -31 -279 -31q-317 0 -317 238z" />
<glyph unicode="&#x12f;" horiz-adv-x="573" d="M-82 -213q0 139 139 225v1022h459v-1034q-59 -33 -113.5 -85t-54.5 -85q0 -45 45 -45l94 8l27 -213q-100 -31 -278 -31q-317 0 -318 238zM55 1100v313h463v-313h-463z" />
<glyph unicode="&#x130;" horiz-adv-x="598" d="M61 0v1372h476v-1372h-476zM109 1446v313h380v-313h-380z" />
<glyph unicode="&#x131;" horiz-adv-x="573" d="M57 0v1034h459v-1034h-459z" />
<glyph unicode="&#x134;" horiz-adv-x="657" d="M4 1460l207 279h311l230 -279h-346l-31 127l-25 -127h-346zM31 -27v392q27 0 39 1t25.5 12t17.5 25.5t8 51.5q6 57 6 204v713h475v-1010q0 -201 -98 -294q-76 -76 -275 -88q-76 -6 -198 -7z" />
<glyph unicode="&#x135;" horiz-adv-x="573" d="M-125 -102q127 59 154.5 93.5t27.5 143.5v899h459v-884q0 -215 -31.5 -293t-61.5 -115t-93 -74q-98 -53 -307 -119zM-72 1141l187 340h323l209 -340h-332l-30 147l-25 -147h-332z" />
<glyph unicode="&#x136;" horiz-adv-x="1247" d="M61 0v1372h476v-485h81l154 485h471l-219 -663l240 -709h-478l-165 457h-84v-457h-476zM356 -532l41 440h418l-127 -440h-332z" />
<glyph unicode="&#x137;" horiz-adv-x="1132" d="M57 0v1413h459v-711h59l93 332h452l-147 -499l160 -535h-459l-96 303h-62v-303h-459zM365 -532l41 440h417l-127 -440h-331z" />
<glyph unicode="&#x139;" horiz-adv-x="1001" d="M61 0v1372h476v-985h446v-387h-922zM82 1460l88 279h496l-224 -279h-360z" />
<glyph unicode="&#x13a;" horiz-adv-x="573" d="M57 0v1413h459v-1413h-459zM57 1518l88 340h486l-223 -340h-351z" />
<glyph unicode="&#x13b;" horiz-adv-x="1001" d="M61 0v1372h476v-985h446v-387h-922zM276 -532l41 440h418l-127 -440h-332z" />
<glyph unicode="&#x13c;" horiz-adv-x="573" d="M57 0v1413h459v-1413h-459zM57 -532l41 440h418l-127 -440h-332z" />
<glyph unicode="&#x13d;" horiz-adv-x="1048" d="M61 0v1372h476v-985h446v-387h-922zM651 999l41 441h418l-127 -441h-332z" />
<glyph unicode="&#x13e;" horiz-adv-x="940" d="M57 0v1413h459v-1413h-459zM598 930l41 440h418l-127 -440h-332z" />
<glyph unicode="&#x141;" horiz-adv-x="1009" d="M6 309v383l64 31v649h475v-411l151 75v-383l-151 -75v-191h446v-387h-921v340z" />
<glyph unicode="&#x142;" horiz-adv-x="630" d="M8 268v383l76 37v725h459v-495l80 40v-383l-80 -40v-535h-459v305z" />
<glyph unicode="&#x143;" horiz-adv-x="1409" d="M61 0v1372h467l316 -520h28v520h476v-1372h-469l-312 559h-30v-559h-476zM434 1460l88 279h496l-223 -279h-361z" />
<glyph unicode="&#x144;" horiz-adv-x="1183" d="M57 0v1034h457v-53q129 80 225 80q221 0 309.5 -120t88.5 -423v-518h-459v487q0 178 -74 179l-88 -15v-651h-459zM348 1141l88 340h486l-224 -340h-350z" />
<glyph unicode="&#x145;" horiz-adv-x="1409" d="M61 0v1372h467l316 -520h28v520h476v-1372h-469l-312 559h-30v-559h-476zM496 -532l41 440h417l-127 -440h-331z" />
<glyph unicode="&#x146;" horiz-adv-x="1183" d="M57 0v1034h457v-53q129 80 225 80q221 0 309.5 -120t88.5 -423v-518h-459v487q0 178 -74 179l-88 -15v-651h-459zM367 -532l41 440h417l-127 -440h-331z" />
<glyph unicode="&#x147;" horiz-adv-x="1409" d="M61 0v1372h467l316 -520h28v520h476v-1372h-469l-312 559h-30v-559h-476zM332 1737h346l29 -127l26 127h346l-229 -279h-311z" />
<glyph unicode="&#x148;" horiz-adv-x="1183" d="M57 0v1034h457v-53q129 80 225 80q221 0 309.5 -120t88.5 -423v-518h-459v487q0 178 -74 179l-88 -15v-651h-459zM217 1481h332l29 -148l26 148h332l-209 -340h-324z" />
<glyph unicode="&#x14a;" horiz-adv-x="1409" d="M61 0v1372h467l316 -520h28v520h476v-1372q0 -211 -43 -303q-27 -57 -56.5 -93t-95.5 -71q-92 -49 -309 -119l-148 348q127 59 155 94t28 144l-312 559h-30v-559h-476z" />
<glyph unicode="&#x14b;" horiz-adv-x="1183" d="M57 0v1034h457v-53q129 80 225 80q221 0 309.5 -120t88.5 -423v-368q0 -215 -32 -293t-61.5 -115t-93.5 -74q-98 -53 -307 -119l-147 349q127 59 154.5 93.5t27.5 143.5v352q0 178 -74 179l-88 -15v-651h-459z" />
<glyph unicode="&#x14c;" horiz-adv-x="1372" d="M33 687q0 374 155.5 543t497.5 169t497.5 -169t155.5 -544t-155.5 -544t-496.5 -169t-497.5 170t-156.5 544zM358 1460v279h658v-279h-658zM512 686q0 -174 34 -251t141.5 -77t140 76t32.5 253t-31.5 252t-140 75t-142.5 -77t-34 -251z" />
<glyph unicode="&#x14d;" horiz-adv-x="1155" d="M31 516q0 289 136 417t410.5 128t410.5 -128t136 -417t-136 -416t-410.5 -127t-410.5 127t-136 416zM244 1153v295h669v-295h-669zM494 517q0 -99 18 -136t65.5 -37t66 37t18.5 136t-18.5 136t-66 37t-65.5 -37t-18 -136z" />
<glyph unicode="&#x14e;" horiz-adv-x="1372" d="M33 687q0 374 155.5 543t497.5 169t497.5 -169t155.5 -544t-155.5 -544t-496.5 -169t-497.5 170t-156.5 544zM358 1765l238 21q10 -92 90 -92t90 92l238 -21q0 -133 -76 -220t-252 -87t-252 87t-76 220zM512 686q0 -174 34 -251t141.5 -77t140 76t32.5 253t-31.5 252 t-140 75t-142.5 -77t-34 -251z" />
<glyph unicode="&#x14f;" horiz-adv-x="1155" d="M31 516q0 289 136 417t410.5 128t410.5 -128t136 -417t-136 -416t-410.5 -127t-410.5 127t-136 416zM254 1450l238 20q10 -92 90 -92t90 92l237 -20q0 -328 -327.5 -328t-327.5 328zM494 517q0 -99 18 -136t65.5 -37t66 37t18.5 136t-18.5 136t-66 37t-65.5 -37t-18 -136 z" />
<glyph unicode="&#x150;" horiz-adv-x="1372" d="M33 687q0 374 155.5 543t497.5 169t497.5 -169t155.5 -544t-155.5 -544t-496.5 -169t-497.5 170t-156.5 544zM303 1460l68 279h383l-183 -279h-268zM512 686q0 -174 34 -251t141.5 -77t140 76t32.5 253t-31.5 252t-140 75t-142.5 -77t-34 -251zM743 1460l68 279h383 l-182 -279h-269z" />
<glyph unicode="&#x151;" horiz-adv-x="1155" d="M31 516q0 289 136 417t410.5 128t410.5 -128t136 -417t-136 -416t-410.5 -127t-410.5 127t-136 416zM178 1145l68 340h393l-182 -340h-279zM494 517q0 -99 18 -136t65.5 -37t66 37t18.5 136t-18.5 136t-66 37t-65.5 -37t-18 -136zM629 1145l67 340h394l-183 -340h-278z " />
<glyph unicode="&#x152;" horiz-adv-x="1814" d="M37 696q0 391 125 547t454 156l375 -27h789v-379h-490v-119h367v-370h-367v-125h490v-379h-789q-233 -27 -395 -27q-319 0 -439 166t-120 557zM504 696q0 -152 13 -210t38 -78q59 -50 176 -50h84v652q-57 4 -84 4q-145 0 -186 -62.5t-41 -255.5z" />
<glyph unicode="&#x153;" horiz-adv-x="1761" d="M31 516q0 289 136 417t390 128t348 -98q88 98 293 98q268 0 401.5 -117t133.5 -358l-21 -203h-592q2 -72 92 -72q205 0 410 13l80 6l10 -297q-272 -59 -505.5 -59.5t-317.5 89.5q-96 -90 -311 -90q-274 0 -410.5 127t-136.5 416zM494 517q0 -99 18 -136t65.5 -37t66 37 t18.5 136t-18.5 136t-66 37t-65.5 -37t-18 -136zM1118 633h160q0 59 -18.5 83.5t-62.5 24.5t-60.5 -24.5t-18.5 -83.5z" />
<glyph unicode="&#x154;" horiz-adv-x="1263" d="M61 0v1372h578q317 0 454.5 -105.5t137.5 -391t-152 -408.5l135 -467h-483l-78 354h-116v-354h-476zM375 1460l88 279h495l-223 -279h-360zM535 729h116q100 0 100.5 134t-112.5 134h-104v-268z" />
<glyph unicode="&#x155;" horiz-adv-x="753" d="M57 0v1034h459v-96q129 123 217 123v-426q-70 0 -180 -55l-37 -19v-561h-459zM117 1141l88 340h485l-223 -340h-350z" />
<glyph unicode="&#x156;" horiz-adv-x="1263" d="M61 0v1372h578q317 0 454.5 -105.5t137.5 -391t-152 -408.5l135 -467h-483l-78 354h-116v-354h-476zM395 -532l41 440h418l-127 -440h-332zM535 729h116q100 0 100.5 134t-112.5 134h-104v-268z" />
<glyph unicode="&#x157;" horiz-adv-x="753" d="M57 0v1034h459v-96q129 123 217 123v-426q-70 0 -180 -55l-37 -19v-561h-459zM57 -532l41 440h418l-127 -440h-332z" />
<glyph unicode="&#x158;" horiz-adv-x="1263" d="M61 0v1372h578q317 0 454.5 -105.5t137.5 -391t-152 -408.5l135 -467h-483l-78 354h-116v-354h-476zM272 1737h346l29 -127l27 127h346l-229 -279h-312zM535 729h116q100 0 100.5 134t-112.5 134h-104v-268z" />
<glyph unicode="&#x159;" horiz-adv-x="753" d="M10 1481h332l29 -148l26 148h332l-209 -340h-323zM57 0v1034h459v-96q129 123 217 123v-426q-70 0 -180 -55l-37 -19v-561h-459z" />
<glyph unicode="&#x15a;" horiz-adv-x="1183" d="M33 918q0 276 133 378.5t409 102.5q195 0 457 -39l86 -14l-12 -369q-289 31 -420 31t-152.5 -7.5t-21.5 -30t24.5 -34.5t154.5 -41t213 -56.5t149.5 -77.5t88 -123t21.5 -196q0 -254 -135 -362.5t-407 -108.5q-131 0 -275.5 18.5t-222.5 37.5l-80 18l20 363 q313 -45 515 -46q106 0 106 48q0 20 -24.5 29.5t-133.5 25.5q-287 45 -390 140t-103 313zM330 1460l88 279h495l-223 -279h-360z" />
<glyph unicode="&#x15b;" horiz-adv-x="1001" d="M39 684q0 209 120 293t339 84q233 0 399 -41l55 -12l-16 -322q-254 29 -346 29t-92 -17q0 -12 160.5 -29.5t234.5 -92t74 -255t-112 -264.5t-343 -84q-129 0 -245.5 13.5t-168.5 27.5l-53 15l10 309q254 -35 353.5 -35t99.5 19q0 10 -162 31.5t-234.5 96t-72.5 234.5z M307 1141l88 340h486l-224 -340h-350z" />
<glyph unicode="&#x15c;" horiz-adv-x="1183" d="M33 918q0 276 133 378.5t409 102.5q195 0 457 -39l86 -14l-12 -369q-289 31 -420 31t-152.5 -7.5t-21.5 -30t24.5 -34.5t154.5 -41t213 -56.5t149.5 -77.5t88 -123t21.5 -196q0 -254 -135 -362.5t-407 -108.5q-131 0 -275.5 18.5t-222.5 37.5l-80 18l20 363 q313 -45 515 -46q106 0 106 48q0 20 -24.5 29.5t-133.5 25.5q-287 45 -390 140t-103 313zM229 1460l207 279h312l229 -279h-346l-31 127l-25 -127h-346z" />
<glyph unicode="&#x15d;" horiz-adv-x="1001" d="M39 684q0 209 120 293t339 84q233 0 399 -41l55 -12l-16 -322q-254 29 -346 29t-92 -17q0 -12 160.5 -29.5t234.5 -92t74 -255t-112 -264.5t-343 -84q-129 0 -245.5 13.5t-168.5 27.5l-53 15l10 309q254 -35 353.5 -35t99.5 19q0 10 -162 31.5t-234.5 96t-72.5 234.5z M143 1141l187 340h323l209 -340h-332l-30 147l-25 -147h-332z" />
<glyph unicode="&#x15e;" horiz-adv-x="1183" d="M33 918q0 276 133 378.5t409 102.5q195 0 457 -39l86 -14l-12 -369q-289 31 -420 31t-152.5 -7.5t-21.5 -30t24.5 -34.5t154.5 -41t213 -56.5t149.5 -77.5t88 -123t21.5 -196q0 -254 -135 -362.5t-407 -108.5h-19v-39q162 -2 222.5 -37.5t60.5 -148.5t-64.5 -166 t-195.5 -53q-133 0 -226 16l-34 6l8 160q63 -2 98 -2q78 0 78 45q0 25 -16.5 33t-61.5 8h-18v187q-201 16 -359 53l-51 12l20 363q313 -45 515 -46q106 0 106 48q0 20 -24.5 29.5t-133.5 25.5q-287 45 -390 140t-103 313z" />
<glyph unicode="&#x15f;" horiz-adv-x="1001" d="M39 684q0 209 120 293t339 84q233 0 399 -41l55 -12l-16 -322q-254 29 -346 29t-92 -17q0 -12 160.5 -29.5t234.5 -92t74 -254t-111 -263.5t-338 -86v-41q162 -2 222.5 -37.5t60.5 -148.5t-64.5 -166t-195.5 -53q-133 0 -226 16l-34 6l8 160q63 -2 98 -2q78 0 78 45 q0 25 -16.5 33t-61.5 8h-18v184q-170 12 -287 43l-37 9l10 309q254 -35 353.5 -35t99.5 19q0 10 -162 31.5t-234.5 96t-72.5 234.5z" />
<glyph unicode="&#x160;" horiz-adv-x="1183" d="M33 918q0 276 133 378.5t409 102.5q195 0 457 -39l86 -14l-12 -369q-289 31 -420 31t-152.5 -7.5t-21.5 -30t24.5 -34.5t154.5 -41t213 -56.5t149.5 -77.5t88 -123t21.5 -196q0 -254 -135 -362.5t-407 -108.5q-131 0 -275.5 18.5t-222.5 37.5l-80 18l20 363 q313 -45 515 -46q106 0 106 48q0 20 -24.5 29.5t-133.5 25.5q-287 45 -390 140t-103 313zM225 1737h346l29 -127l27 127h346l-230 -279h-311z" />
<glyph unicode="&#x161;" horiz-adv-x="1001" d="M39 684q0 209 120 293t339 84q233 0 399 -41l55 -12l-16 -322q-254 29 -346 29t-92 -17q0 -12 160.5 -29.5t234.5 -92t74 -255t-112 -264.5t-343 -84q-129 0 -245.5 13.5t-168.5 27.5l-53 15l10 309q254 -35 353.5 -35t99.5 19q0 10 -162 31.5t-234.5 96t-72.5 234.5z M143 1481h332l29 -148l26 148h332l-209 -340h-323z" />
<glyph unicode="&#x162;" horiz-adv-x="1062" d="M18 985v387h1024v-387h-266v-985h-164v-68q162 -2 222.5 -37.5t60.5 -148.5t-64.5 -166t-195.5 -53q-133 0 -225 16l-35 6l8 160q63 -2 98 -2q78 0 78 45q0 25 -16.5 33t-61.5 8h-18v207h-162v985h-283z" />
<glyph unicode="&#x163;" horiz-adv-x="759" d="M20 664v370h80v205h459v-205h166v-370h-166v-213q0 -51 13.5 -68.5t54.5 -17.5l92 2l6 -357q-170 -35 -264 -37v-41q162 -2 222 -37.5t60 -148.5t-64.5 -166t-195.5 -53q-133 0 -225 16l-35 6l8 160q63 -2 99 -2q78 0 78 45q0 25 -16.5 33t-61.5 8h-19v195 q-111 23 -161 104.5t-50 251.5v320h-80z" />
<glyph unicode="&#x164;" horiz-adv-x="1062" d="M18 985v387h1024v-387h-266v-985h-475v985h-283zM158 1737h346l28 -127l27 127h346l-229 -279h-311z" />
<glyph unicode="&#x165;" horiz-adv-x="759" d="M20 664v370h80v205h459v-205h166v-370h-166v-213q0 -51 13.5 -68.5t54.5 -17.5l92 2l6 -357q-176 -37 -270 -37q-190 0 -272.5 79t-82.5 292v320h-80zM637 1104l39 420h397l-121 -420h-315z" />
<glyph unicode="&#x166;" horiz-adv-x="1062" d="M18 985v387h1024v-387h-266v-315h96v-281h-96v-389h-475v389h-96v281h96v315h-283z" />
<glyph unicode="&#x167;" horiz-adv-x="757" d="M20 707v327h80v205h459v-205h166v-327h-166v-70h131v-215h-131q0 -45 13.5 -61.5t54.5 -16.5l92 2l6 -336q-176 -37 -270 -37q-190 0 -272.5 79t-82.5 292v78h-75v215h75v70h-80z" />
<glyph unicode="&#x168;" horiz-adv-x="1312" d="M53 492v880h475v-899q0 -59 30 -83.5t99.5 -24.5t98 24.5t28.5 83.5v899h476v-872q0 -291 -145.5 -409t-458 -118t-458 115t-145.5 404zM283 1694q35 41 102.5 81t127.5 40t164.5 -33t127.5 -33q41 0 137 37l29 10l59 -219q-12 -12 -33.5 -32.5t-79 -53.5t-110.5 -33 t-162.5 35t-136.5 35q-55 0 -137 -37l-29 -14z" />
<glyph unicode="&#x169;" horiz-adv-x="1181" d="M47 500v534h459v-504q0 -92 16.5 -126.5t52.5 -34.5l91 12v653h458v-1034h-454v49q-131 -76 -234 -76q-217 0 -303 126t-86 401zM223 1366q41 49 105.5 90t125 41t165 -44t126.5 -44q43 0 136 61l30 19l60 -240q-43 -49 -106.5 -89t-117 -40t-163 45t-135.5 45 q-51 0 -138 -61l-28 -21z" />
<glyph unicode="&#x16a;" horiz-adv-x="1312" d="M53 492v880h475v-899q0 -59 30 -83.5t99.5 -24.5t98 24.5t28.5 83.5v899h476v-872q0 -291 -145.5 -409t-458 -118t-458 115t-145.5 404zM328 1460v279h657v-279h-657z" />
<glyph unicode="&#x16b;" horiz-adv-x="1181" d="M47 500v534h459v-504q0 -92 16.5 -126.5t52.5 -34.5l91 12v653h458v-1034h-454v49q-131 -76 -234 -76q-217 0 -303 126t-86 401zM262 1153v295h670v-295h-670z" />
<glyph unicode="&#x16c;" horiz-adv-x="1312" d="M53 492v880h475v-899q0 -59 30 -83.5t99.5 -24.5t98 24.5t28.5 83.5v899h476v-872q0 -291 -145.5 -409t-458 -118t-458 115t-145.5 404zM328 1765l237 21q10 -92 90 -92t90 92l238 -21q0 -133 -76 -220t-252 -87t-251.5 87t-75.5 220z" />
<glyph unicode="&#x16d;" horiz-adv-x="1181" d="M47 500v534h459v-504q0 -92 16.5 -126.5t52.5 -34.5l91 12v653h458v-1034h-454v49q-131 -76 -234 -76q-217 0 -303 126t-86 401zM258 1450l238 20q10 -92 90 -92t90 92l237 -20q0 -328 -327.5 -328t-327.5 328z" />
<glyph unicode="&#x16e;" horiz-adv-x="1312" d="M53 492v880h475v-899q0 -59 30 -83.5t99.5 -24.5t98 24.5t28.5 83.5v899h476v-872q0 -291 -145.5 -409t-458 -118t-458 115t-145.5 404zM375 1634.5q0 196.5 280 196.5q127 0 204 -48t77 -146.5t-75 -148.5t-206 -50q-280 0 -280 196.5zM594 1633q0 -44 62.5 -44t62.5 44 t-62.5 44t-62.5 -44z" />
<glyph unicode="&#x16f;" horiz-adv-x="1181" d="M47 500v534h459v-504q0 -92 16.5 -126.5t52.5 -34.5l91 12v653h458v-1034h-454v49q-131 -76 -234 -76q-217 0 -303 126t-86 401zM322 1314.5q0 102.5 73.5 153t199.5 50.5t200.5 -50.5t74.5 -150.5t-72.5 -152.5t-200.5 -52.5t-201.5 50t-73.5 152.5zM535 1314 q0 -44 62 -44t62 44t-62 44t-62 -44z" />
<glyph unicode="&#x170;" horiz-adv-x="1312" d="M53 492v880h475v-899q0 -59 30 -83.5t99.5 -24.5t98 24.5t28.5 83.5v899h476v-872q0 -291 -145.5 -409t-458 -118t-458 115t-145.5 404zM231 1460l68 279h383l-182 -279h-269zM672 1460l67 279h383l-182 -279h-268z" />
<glyph unicode="&#x171;" horiz-adv-x="1181" d="M47 500v534h459v-504q0 -92 16.5 -126.5t52.5 -34.5l91 12v653h458v-1034h-454v49q-131 -76 -234 -76q-217 0 -303 126t-86 401zM170 1145l68 340h393l-182 -340h-279zM621 1145l67 340h393l-182 -340h-278z" />
<glyph unicode="&#x172;" horiz-adv-x="1312" d="M53 492v880h475v-899q0 -59 30 -83.5t99.5 -24.5t98 24.5t28.5 83.5v899h476v-872q0 -246 -103.5 -366t-318.5 -148q-100 -100 -100.5 -150.5t44.5 -50.5l95 8l26 -213q-100 -31 -278 -31q-317 0 -318 238q0 121 111 207q-186 37 -275.5 153.5t-89.5 344.5z" />
<glyph unicode="&#x173;" horiz-adv-x="1181" d="M47 500v534h459v-504q0 -92 16.5 -126.5t52.5 -34.5l91 12v653h458v-1034h-4q-59 -29 -111.5 -83t-52.5 -85q0 -45 45 -45l95 8l26 -213q-100 -31 -278 -31q-317 0 -318 238q0 143 144 229v31q-131 -76 -234 -76q-217 0 -303 126t-86 401z" />
<glyph unicode="&#x174;" horiz-adv-x="1873" d="M12 1372h473l66 -893h37l92 873h518l102 -873h37l41 893h477l-151 -1372h-694l-68 844l-20 2l-70 -846h-678zM561 1460l207 279h311l230 -279h-346l-31 127l-25 -127h-346z" />
<glyph unicode="&#x175;" horiz-adv-x="1622" d="M20 1034h506l21 -651h24l47 625h416l66 -625h24l23 651h452l-104 -1034h-653l-35 446l-39 -446h-625zM451 1141l186 340h324l208 -340h-331l-31 147l-25 -147h-331z" />
<glyph unicode="&#x176;" horiz-adv-x="1208" d="M-27 1372h504l129 -403l133 403h502l-401 -942v-430h-475v430zM233 1460l207 279h312l229 -279h-346l-31 127l-24 -127h-347z" />
<glyph unicode="&#x177;" horiz-adv-x="1118" d="M2 1034h487l74 -651h29l65 651h461l-244 -1433h-503l129 399h-324zM217 1141l186 340h324l209 -340h-332l-31 147l-24 -147h-332z" />
<glyph unicode="&#x178;" horiz-adv-x="1208" d="M-27 1372h504l129 -403l133 403h502l-401 -942v-430h-475v430zM229 1460v295h330v-295h-330zM653 1460v295h330v-295h-330z" />
<glyph unicode="&#x179;" horiz-adv-x="1165" d="M39 0v369l455 581v35h-455v387h1085v-387l-444 -563v-35h444v-387h-1085zM311 1460l88 279h496l-223 -279h-361z" />
<glyph unicode="&#x17a;" horiz-adv-x="1024" d="M49 0v375l303 260h-303v399h924v-354l-314 -281h320v-399h-930zM299 1141l88 340h485l-223 -340h-350z" />
<glyph unicode="&#x17b;" horiz-adv-x="1165" d="M39 0v369l455 581v35h-455v387h1085v-387l-444 -563v-35h444v-387h-1085zM397 1460v293h369v-293h-369z" />
<glyph unicode="&#x17c;" horiz-adv-x="1024" d="M49 0v375l303 260h-303v399h924v-354l-314 -281h320v-399h-930zM324 1153v313h381v-313h-381z" />
<glyph unicode="&#x17d;" horiz-adv-x="1165" d="M39 0v369l455 581v35h-455v387h1085v-387l-444 -563v-35h444v-387h-1085zM209 1737h346l29 -127l26 127h346l-229 -279h-311z" />
<glyph unicode="&#x17e;" horiz-adv-x="1024" d="M49 0v375l303 260h-303v399h924v-354l-314 -281h320v-399h-930zM154 1481h331l29 -148l27 148h331l-208 -340h-324z" />
<glyph unicode="&#x192;" horiz-adv-x="759" d="M-49 -74q106 0 133 12.5t29 61.5l28 668h-135v143h141l9 195q10 205 83.5 285.5t256.5 80.5l262 -24v-301q-100 0 -130 -13.5t-32 -60.5l-8 -162h170v-143h-176l-31 -701q-10 -211 -76.5 -288.5t-261.5 -77.5l-262 24v301z" />
<glyph unicode="&#x1fa;" horiz-adv-x="1308" d="M-10 0l303 1372h113q-31 39 -31 107q0 197 280 196q127 0 204 -48t77 -148q0 -61 -33 -107h109l309 -1372h-479l-39 158h-314l-32 -158h-467zM406 1737l88 278h495l-223 -278h-360zM551 520h203l-74 479h-51zM594 1478q0 -44 62.5 -44t62.5 44t-62.5 44t-62.5 -44z" />
<glyph unicode="&#x1fb;" horiz-adv-x="1140" d="M20 323.5q0 184.5 104.5 247t330.5 70.5l147 6v19q0 39 -86 39q-186 0 -373 -21l-67 -6l-10 311q270 72 493 72q233 0 363 -70q139 -74 139 -291v-389q18 -14 49 -22l-6 -291q-160 -25 -219.5 -25t-108.5 17.5t-65 36.5l-17 18q-127 -72 -308 -72t-273.5 83t-92.5 267.5z M283 1304.5q0 102.5 73.5 152.5t199.5 50t200.5 -50t74.5 -150.5t-72.5 -152.5t-200.5 -52t-201.5 50t-73.5 152.5zM350 1548l88 340h486l-224 -340h-350zM479 338q0 -49 45 -49q39 0 78 30v76l-70 -4q-53 -4 -53 -53zM496 1304q0 -44 62.5 -44t62.5 44t-62.5 44t-62.5 -44z " />
<glyph unicode="&#x1fc;" horiz-adv-x="1806" d="M-10 0l303 1372h1479v-379h-560v-123h437v-362h-437v-129h560v-379h-1022v158h-261l-32 -158h-467zM553 524h197v469h-121zM713 1460l88 279h495l-223 -279h-360z" />
<glyph unicode="&#x1fd;" horiz-adv-x="1693" d="M20 322q0 154 68 227q72 80 363 92l139 6v19q0 39 -86 39q-184 0 -363 -21l-65 -6l-10 311q258 72 474 72t324 -51q115 51 266 51q268 0 401.5 -117t133.5 -358l-20 -203h-592q2 -72 94 -72q203 0 409 13l78 6l11 -297q-272 -59 -501 -59.5t-353 71.5 q-223 -72 -400.5 -72t-274 86t-96.5 263zM467 338q0 -49 45 -49q39 0 78 30v76l-70 -4q-53 -4 -53 -53zM653 1141l88 340h486l-223 -340h-351zM1051 633h159q0 59 -18 83.5t-62.5 24.5t-60.5 -24.5t-18 -83.5z" />
<glyph unicode="&#x1fe;" horiz-adv-x="1372" d="M33 670q0 391 155.5 560t497.5 169l57 -2l37 86l445 -90l-60 -146q174 -168 174 -552t-155.5 -553t-497.5 -169h-39l-33 -84l-444 91q6 18 53 129q-190 170 -190 561zM416 1491l88 278h495l-223 -278h-360zM512 686q0 -174 34 -251t141.5 -77t140 76t32.5 253t-31.5 252 t-140 75t-142.5 -77t-34 -251z" />
<glyph unicode="&#x1ff;" horiz-adv-x="1155" d="M-10 -61l127 221q-86 129 -86 358q0 287 136 415t411 128q35 0 53 -2l84 147l112 -22q111 -20 222 -43l110 -23l-131 -231q96 -131 96 -369q0 -291 -136 -418t-410 -127l-72 2l-72 -127zM295 1141l88 340h485l-223 -340h-350zM494 517q0 -99 18 -136t65.5 -37t66 37 t18.5 136t-18.5 136t-66 37t-65.5 -37t-18 -136z" />
<glyph unicode="&#x218;" horiz-adv-x="1183" d="M33 918q0 276 133 378.5t409 102.5q195 0 457 -39l86 -14l-12 -369q-289 31 -420 31t-152.5 -7.5t-21.5 -30t24.5 -34.5t154.5 -41t213 -56.5t149.5 -77.5t88 -123t21.5 -196q0 -254 -135 -362.5t-407 -108.5q-131 0 -275.5 18.5t-222.5 37.5l-80 18l20 363 q313 -45 515 -46q106 0 106 48q0 20 -24.5 29.5t-133.5 25.5q-287 45 -390 140t-103 313zM369 -532l41 440h417l-127 -440h-331z" />
<glyph unicode="&#x219;" horiz-adv-x="1001" d="M39 684q0 209 120 293t339 84q233 0 399 -41l55 -12l-16 -322q-254 29 -346 29t-92 -17q0 -12 160.5 -29.5t234.5 -92t74 -255t-112 -264.5t-343 -84q-129 0 -245.5 13.5t-168.5 27.5l-53 15l10 309q254 -35 353.5 -35t99.5 19q0 10 -162 31.5t-234.5 96t-72.5 234.5z M272 -532l41 440h418l-127 -440h-332z" />
<glyph unicode="&#x21a;" horiz-adv-x="1062" d="M18 985v387h1024v-387h-266v-985h-475v985h-283zM289 -532l41 440h418l-127 -440h-332z" />
<glyph unicode="&#x21b;" horiz-adv-x="759" d="M20 664v370h80v205h459v-205h166v-370h-166v-213q0 -51 13.5 -68.5t54.5 -17.5l92 2l6 -357q-176 -37 -270 -37q-190 0 -272.5 79t-82.5 292v320h-80zM143 -532l41 440h418l-127 -440h-332z" />
<glyph unicode="&#x2c6;" horiz-adv-x="1705" d="M489 1141l187 340h323l209 -340h-331l-31 147l-25 -147h-332z" />
<glyph unicode="&#x2da;" horiz-adv-x="1015" d="M274 1314.5q0 102.5 74 153t200 50.5t200.5 -50.5t74.5 -150.5t-72.5 -152.5t-200.5 -52.5t-202 50t-74 152.5zM487 1314q0 -44 62.5 -44t62.5 44t-62.5 44t-62.5 -44z" />
<glyph unicode="&#x2dc;" horiz-adv-x="985" d="M76 1366q41 49 105.5 90t125 41t164.5 -44t127 -44q43 0 135 61l31 19l59 -240q-43 -49 -106.5 -89t-116.5 -40t-162.5 45t-136.5 45q-51 0 -137 -61l-29 -21z" />
<glyph unicode="&#x3c0;" d="M37 578v419q90 18 256 25l51 2h442q195 0 295 33v-420q-70 -25 -213 -31v-65q0 -55 1 -89t12.5 -58.5t17.5 -35t36 -16.5t46 -6h70v-336q-270 0 -381 64.5t-119 250.5v289h-31l-37 -604h-358l37 596z" />
<glyph unicode="&#x1e80;" horiz-adv-x="1873" d="M12 1372h473l66 -893h37l92 873h518l102 -873h37l41 893h477l-151 -1372h-694l-68 844l-20 2l-70 -846h-678zM610 1739h496l70 -279h-353z" />
<glyph unicode="&#x1e81;" horiz-adv-x="1622" d="M20 1034h506l21 -651h24l47 625h416l66 -625h24l23 651h452l-104 -1034h-653l-35 446l-39 -446h-625zM465 1481h485l88 -340h-350z" />
<glyph unicode="&#x1e82;" horiz-adv-x="1873" d="M12 1372h473l66 -893h37l92 873h518l102 -873h37l41 893h477l-151 -1372h-694l-68 844l-20 2l-70 -846h-678zM684 1460l88 279h496l-224 -279h-360z" />
<glyph unicode="&#x1e83;" horiz-adv-x="1622" d="M20 1034h506l21 -651h24l47 625h416l66 -625h24l23 651h452l-104 -1034h-653l-35 446l-39 -446h-625zM621 1141l88 340h485l-223 -340h-350z" />
<glyph unicode="&#x1e84;" horiz-adv-x="1873" d="M12 1372h473l66 -893h37l92 873h518l102 -873h37l41 893h477l-151 -1372h-694l-68 844l-20 2l-70 -846h-678zM557 1460v295h330v-295h-330zM981 1460v295h330v-295h-330z" />
<glyph unicode="&#x1e85;" horiz-adv-x="1622" d="M20 1034h506l21 -651h24l47 625h416l66 -625h24l23 651h452l-104 -1034h-653l-35 446l-39 -446h-625zM426 1145v315h336v-315h-336zM856 1145v315h336v-315h-336z" />
<glyph unicode="&#x1eab;" horiz-adv-x="1140" d="M20 323.5q0 184.5 104.5 247t330.5 70.5l147 6v19q0 39 -86 39q-186 0 -373 -21l-67 -6l-10 311q270 72 493 72q233 0 363 -70q139 -74 139 -291v-389q18 -14 49 -22l-6 -291q-160 -25 -219.5 -25t-108.5 17.5t-65 36.5l-17 18q-127 -72 -308 -72t-273.5 83t-92.5 267.5z M197 1776q41 49 105.5 90t124.5 41t164.5 -44t127.5 -44q43 0 137 61l29 18l59 -239q-43 -49 -106.5 -89t-116.5 -40t-162.5 45t-136.5 45q-51 0 -137 -61l-29 -21zM207 1141l186 340h324l209 -340h-332l-31 147l-24 -147h-332zM479 338q0 -49 45 -49q39 0 78 30v76l-70 -4 q-53 -4 -53 -53z" />
<glyph unicode="&#x1eb0;" horiz-adv-x="1308" d="M-10 0l303 1372h719l309 -1372h-479l-39 158h-314l-32 -158h-467zM264 2214h486l88 -340h-351zM328 1765l237 21q10 -92 90 -92t90 92l238 -21q0 -133 -76 -220t-252 -87t-251.5 87t-75.5 220zM551 520h203l-74 479h-51z" />
<glyph unicode="&#x1ec5;" horiz-adv-x="1130" d="M31 498.5q0 277.5 129 420t402.5 142.5t406.5 -117t133 -358l-21 -203h-592q2 -72 93 -72q205 0 409 13l80 6l10 -297q-272 -59 -541.5 -59.5t-389 123.5t-119.5 401.5zM190 1776q41 49 105.5 90t125 41t165 -44t127.5 -44q43 0 135 61l31 18l59 -239q-43 -49 -106.5 -89 t-116.5 -40t-163 45t-136 45q-51 0 -137 -61l-29 -21zM207 1141l186 340h324l209 -340h-332l-31 147l-24 -147h-332zM487 633h156q0 59 -17.5 83.5t-60.5 24.5t-59.5 -24.5t-18.5 -83.5z" />
<glyph unicode="&#x1ed7;" horiz-adv-x="1155" d="M31 516q0 289 136 417t410.5 128t410.5 -128t136 -417t-136 -416t-410.5 -127t-410.5 127t-136 416zM203 1776q41 49 105.5 90t125 41t164.5 -44t127 -44q43 0 135 61l31 18l59 -239q-43 -49 -106.5 -89t-116.5 -40t-162.5 45t-136.5 45q-51 0 -137 -61l-29 -21z M219 1141l187 340h323l209 -340h-332l-31 147l-24 -147h-332zM494 517q0 -99 18 -136t65.5 -37t66 37t18.5 136t-18.5 136t-66 37t-65.5 -37t-18 -136z" />
<glyph unicode="&#x1ef2;" horiz-adv-x="1208" d="M-27 1372h504l129 -403l133 403h502l-401 -942v-430h-475v430zM262 1739h496l69 -279h-352z" />
<glyph unicode="&#x1ef3;" horiz-adv-x="1118" d="M2 1034h487l74 -651h29l65 651h461l-244 -1433h-503l129 399h-324zM236 1481h485l88 -340h-350z" />
<glyph unicode="&#x1ef8;" horiz-adv-x="1208" d="M-27 1372h504l129 -403l133 403h502l-401 -942v-430h-475v430zM229 1704q41 49 105.5 90t125 41t165 -44t127 -44t64.5 19.5t73 39.5l29 21l59 -240q-43 -49 -106.5 -89t-117 -40t-163 45t-135.5 45q-51 0 -138 -61l-28 -21z" />
<glyph unicode="&#x1ef9;" horiz-adv-x="1118" d="M2 1034h487l74 -651h29l65 651h461l-244 -1433h-503l129 399h-324zM184 1366q41 49 105.5 90t125 41t165 -44t127.5 -44q43 0 137 61l28 19l60 -240q-43 -49 -106.5 -89t-117 -40t-163 45t-135.5 45q-51 0 -138 -61l-28 -21z" />
<glyph unicode="&#x2000;" horiz-adv-x="1107" />
<glyph unicode="&#x2001;" horiz-adv-x="2214" />
<glyph unicode="&#x2002;" horiz-adv-x="1107" />
<glyph unicode="&#x2003;" horiz-adv-x="2214" />
<glyph unicode="&#x2004;" horiz-adv-x="738" />
<glyph unicode="&#x2005;" horiz-adv-x="553" />
<glyph unicode="&#x2006;" horiz-adv-x="369" />
<glyph unicode="&#x2007;" horiz-adv-x="369" />
<glyph unicode="&#x2008;" horiz-adv-x="276" />
<glyph unicode="&#x2009;" horiz-adv-x="442" />
<glyph unicode="&#x200a;" horiz-adv-x="123" />
<glyph unicode="&#x2010;" horiz-adv-x="729" d="M59 330v370h611v-370h-611z" />
<glyph unicode="&#x2011;" horiz-adv-x="729" d="M59 330v370h611v-370h-611z" />
<glyph unicode="&#x2012;" horiz-adv-x="729" d="M59 330v370h611v-370h-611z" />
<glyph unicode="&#x2013;" horiz-adv-x="1146" d="M61 317v404h1024v-404h-1024z" />
<glyph unicode="&#x2014;" horiz-adv-x="2170" d="M61 317v404h2048v-404h-2048z" />
<glyph unicode="&#x2018;" horiz-adv-x="569" d="M16 797l154 575h360l-43 -575h-471z" />
<glyph unicode="&#x2019;" horiz-adv-x="563" d="M39 797l43 575h471l-154 -575h-360z" />
<glyph unicode="&#x201a;" horiz-adv-x="561" d="M23 -221l43 575h471l-154 -575h-360z" />
<glyph unicode="&#x201c;" horiz-adv-x="1114" d="M16 797l154 575h360l-43 -575h-471zM561 797l154 575h360l-43 -575h-471z" />
<glyph unicode="&#x201d;" horiz-adv-x="1107" d="M39 797l43 575h471l-154 -575h-360zM584 797l43 575h471l-154 -575h-360z" />
<glyph unicode="&#x201e;" horiz-adv-x="1105" d="M23 -221l43 575h471l-154 -575h-360zM567 -221l43 575h471l-153 -575h-361z" />
<glyph unicode="&#x2020;" horiz-adv-x="1093" d="M35 602v406h280v364h463v-364h281v-406h-281v-1001h-463v1001h-280z" />
<glyph unicode="&#x2021;" horiz-adv-x="1122" d="M49 -35v406h281v231h-281v406h281v364h463v-364h280v-406h-280v-231h280v-406h-280v-362h-463v362h-281z" />
<glyph unicode="&#x2022;" horiz-adv-x="772" d="M104 287v553h564v-553h-564z" />
<glyph unicode="&#x2026;" horiz-adv-x="1794" d="M55 0v408h467v-408h-467zM664 0v408h466v-408h-466zM1272 0v408h467v-408h-467z" />
<glyph unicode="&#x202f;" horiz-adv-x="442" />
<glyph unicode="&#x2030;" horiz-adv-x="2002" d="M35 1002.5q0 199.5 65.5 282.5t232.5 83t229.5 -82t62.5 -282.5t-63.5 -283.5t-231.5 -83t-231.5 83t-63.5 282.5zM293 1019q0 -87 4 -118t10 -38t26.5 -7t27 22.5t6.5 126t-6.5 125t-31 21.5t-30.5 -22.5t-6 -109.5zM467 -121l324 1557l90 -19l-326 -1554zM739 341 q0 200 65.5 283t232.5 83t229.5 -82t62.5 -283t-63.5 -284t-231.5 -83t-231.5 83t-63.5 283zM997 357q0 -87 4.5 -117.5t10.5 -37.5t26.5 -7t26.5 22.5t6 125.5t-6 124.5t-30.5 21.5t-31 -22.5t-6.5 -109.5zM1378 341q0 200 65.5 283t232.5 83t229.5 -82t62.5 -283 t-63.5 -284t-231.5 -83t-231.5 83t-63.5 283zM1636 357q0 -87 4.5 -117.5t10.5 -37.5t26.5 -7t26.5 22.5t6 125.5t-6 124.5t-30.5 21.5t-31 -22.5t-6.5 -109.5z" />
<glyph unicode="&#x2039;" horiz-adv-x="724" d="M29 500v43l329 481l328 -152l-233 -346l233 -346l-332 -151z" />
<glyph unicode="&#x203a;" horiz-adv-x="724" d="M39 164l233 346l-233 346l332 152l325 -471v-43l-329 -482z" />
<glyph unicode="&#x2044;" horiz-adv-x="440" d="M-229 10l620 1536l301 -131l-620 -1536z" />
<glyph unicode="&#x205f;" horiz-adv-x="553" />
<glyph unicode="&#x20ac;" d="M31 502v123h51v127h-51v122h57q25 281 155 389.5t433 108.5q133 0 342 -41l69 -12l-12 -361q-166 20 -283.5 20.5t-161.5 -20t-63 -84.5h447v-122h-463v-127h463v-123h-453q16 -82 60.5 -107.5t146.5 -25.5l313 10l6 -352q-213 -53 -432 -54q-297 0 -421.5 114 t-147.5 415h-55z" />
<glyph unicode="&#x2122;" horiz-adv-x="1212" d="M84 1157v162h410v-162h-84v-477h-181v477h-145zM545 678v641h211l84 -324l92 324h209v-641h-168v356l-70 -313h-112l-78 313v-356h-168z" />
<glyph unicode="&#x25fc;" horiz-adv-x="1034" d="M0 0v1034h1034v-1034h-1034z" />
</font>
</defs>
</svg>
